<svg width="15" height="15" viewBox="0 0 15 15" fill="none" xmlns="http://www.w3.org/2000/svg">
<path d="M7.5 0C3.36445 0 0 3.36445 0 7.5C0 11.6356 3.36445 15 7.5 15C11.6356 15 15 11.6356 15 7.5C15 3.36445 11.6356 0 7.5 0ZM7.5 14.0243C3.90251 14.0243 0.975737 11.0975 0.975737 7.5C0.975737 3.90246 3.90251 0.975737 7.5 0.975737C11.0975 0.975737 14.0243 3.90251 14.0243 7.5C14.0243 11.0975 11.0975 14.0243 7.5 14.0243Z" fill="white"/>
<path d="M10.5595 8.72219C10.3325 8.57708 10.0309 8.64338 9.88564 8.87029C9.41436 9.60713 8.6116 10.047 7.73826 10.047C6.33385 10.047 5.19131 8.90444 5.19131 7.50003C5.19131 6.09562 6.33385 4.95303 7.73826 4.95303C8.58568 4.95303 9.37533 5.37298 9.85062 6.07638C10.0014 6.29955 10.3046 6.35831 10.528 6.20745C10.7512 6.05664 10.8099 5.75335 10.6591 5.53007C10.0022 4.55775 8.91023 3.97729 7.73826 3.97729C5.79584 3.97729 4.21558 5.55755 4.21558 7.50003C4.21558 9.4425 5.79584 11.0228 7.73826 11.0228C8.94606 11.0228 10.0561 10.4147 10.7076 9.39605C10.8528 9.16908 10.7865 8.86742 10.5595 8.72219Z" fill="white"/>
</svg>
