<svg width="36" height="36" viewBox="0 0 36 36" fill="none" xmlns="http://www.w3.org/2000/svg">
<path d="M21.4453 18C21.4453 19.9029 19.9028 21.4454 18 21.4454C16.0972 21.4454 14.5547 19.9029 14.5547 18C14.5547 16.0972 16.0972 14.5547 18 14.5547C19.9028 14.5547 21.4453 16.0972 21.4453 18Z" fill="white"/>
<path d="M26.0575 11.9042C25.8919 11.4554 25.6276 11.0491 25.2843 10.7157C24.9509 10.3724 24.5449 10.1082 24.0959 9.94254C23.7317 9.80109 23.1846 9.63272 22.1768 9.58685C21.0867 9.53714 20.7599 9.52643 18.0001 9.52643C15.2401 9.52643 14.9132 9.53687 13.8234 9.58658C12.8157 9.63272 12.2683 9.80109 11.9044 9.94254C11.4553 10.1082 11.0491 10.3724 10.7159 10.7157C10.3726 11.0491 10.1084 11.4551 9.94247 11.9042C9.80103 12.2684 9.63266 12.8158 9.58679 13.8235C9.53708 14.9133 9.52637 15.2402 9.52637 18.0002C9.52637 20.76 9.53708 21.0869 9.58679 22.177C9.63266 23.1847 9.80103 23.7318 9.94247 24.096C10.1084 24.5451 10.3723 24.951 10.7156 25.2845C11.0491 25.6278 11.455 25.892 11.9041 26.0576C12.2683 26.1994 12.8157 26.3677 13.8234 26.4136C14.9132 26.4633 15.2398 26.4738 17.9998 26.4738C20.7602 26.4738 21.087 26.4633 22.1766 26.4136C23.1843 26.3677 23.7317 26.1994 24.0959 26.0576C24.9973 25.7099 25.7098 24.9975 26.0575 24.096C26.1989 23.7318 26.3673 23.1847 26.4134 22.177C26.4632 21.0869 26.4736 20.76 26.4736 18.0002C26.4736 15.2402 26.4632 14.9133 26.4134 13.8235C26.3676 12.8158 26.1992 12.2684 26.0575 11.9042ZM18.0001 23.3075C15.0687 23.3075 12.6924 20.9314 12.6924 18C12.6924 15.0685 15.0687 12.6924 18.0001 12.6924C20.9313 12.6924 23.3076 15.0685 23.3076 18C23.3076 20.9314 20.9313 23.3075 18.0001 23.3075ZM23.5175 13.723C22.8325 13.723 22.2771 13.1676 22.2771 12.4826C22.2771 11.7976 22.8325 11.2422 23.5175 11.2422C24.2024 11.2422 24.7578 11.7976 24.7578 12.4826C24.7575 13.1676 24.2024 13.723 23.5175 13.723Z" fill="white"/>
<path d="M18 0C8.06039 0 0 8.06039 0 18C0 27.9396 8.06039 36 18 36C27.9396 36 36 27.9396 36 18C36 8.06039 27.9396 0 18 0ZM28.2736 22.2613C28.2236 23.3616 28.0486 24.1128 27.7932 24.7703C27.2563 26.1587 26.1587 27.2563 24.7703 27.7932C24.1131 28.0486 23.3616 28.2233 22.2616 28.2736C21.1594 28.3239 20.8073 28.3359 18.0003 28.3359C15.193 28.3359 14.8412 28.3239 13.7387 28.2736C12.6387 28.2233 11.8872 28.0486 11.2299 27.7932C10.54 27.5337 9.91544 27.1269 9.39908 26.6009C8.87338 26.0848 8.46661 25.46 8.20706 24.7703C7.95163 24.1131 7.77667 23.3616 7.72668 22.2616C7.67587 21.1591 7.66406 20.807 7.66406 18C7.66406 15.193 7.67587 14.8409 7.72641 13.7387C7.7764 12.6384 7.95108 11.8872 8.20651 11.2297C8.46606 10.54 8.87311 9.91516 9.39908 9.39908C9.91516 8.87311 10.54 8.46634 11.2297 8.20679C11.8872 7.95135 12.6384 7.77667 13.7387 7.72641C14.8409 7.67615 15.193 7.66406 18 7.66406C20.807 7.66406 21.1591 7.67615 22.2613 7.72668C23.3616 7.77667 24.1128 7.95135 24.7703 8.20651C25.46 8.46606 26.0848 8.87311 26.6012 9.39908C27.1269 9.91544 27.5339 10.54 27.7932 11.2297C28.0489 11.8872 28.2236 12.6384 28.2739 13.7387C28.3241 14.8409 28.3359 15.193 28.3359 18C28.3359 20.807 28.3241 21.1591 28.2736 22.2613Z" fill="white"/>
</svg>
