<svg width="36" height="36" viewBox="0 0 36 36" fill="none" xmlns="http://www.w3.org/2000/svg">
<path d="M18 0C8.05921 0 0 8.05884 0 18C0 27.9412 8.05921 36 18 36C27.9408 36 36 27.9412 36 18C36 8.05884 27.9408 0 18 0ZM7.02912 23.0312C6.81809 21.3474 6.94515 18.9737 7.15544 18.0449C7.38746 17.0163 7.9583 16.7596 8.93426 17.1507C10.8622 17.923 12.7847 18.7078 14.7064 19.4949C15.3133 19.7438 15.5804 20.1747 15.5538 20.8004C15.5281 21.3941 15.2342 21.7694 14.6037 21.9701C12.5792 22.6154 10.5555 23.2624 8.52546 23.89C7.71818 24.1393 7.20958 23.8646 7.02912 23.0312ZM17.9488 31.42C17.94 32.2335 17.5223 32.6674 16.7154 32.5875C14.916 32.4096 13.255 31.7964 11.7653 30.7747C11.0902 30.3114 11.0361 29.7167 11.5579 29.0873C12.9386 27.4248 14.3337 25.7742 15.7328 24.1268C16.1243 23.6657 16.6488 23.563 17.2126 23.7865C17.74 23.9961 17.9834 24.3614 17.9864 24.9834C17.9919 26.0563 17.9878 27.1287 17.9878 28.2015C17.9764 28.2015 17.9646 28.2015 17.9521 28.2015C17.9518 29.2747 17.9613 30.3475 17.9488 31.42ZM17.9462 16.4816C17.6987 17.3765 16.809 17.6387 16.1033 17.0281C15.8186 16.7817 15.5752 16.4683 15.3723 16.1486C13.4226 13.086 11.4843 10.0159 9.54635 6.94588C8.98656 6.05942 9.09815 5.52466 10.0373 5.0481C11.896 4.10455 13.8726 3.53481 15.9575 3.40923C16.9515 3.34957 17.301 3.68323 17.3699 4.66729C17.614 8.17706 17.8453 11.6876 18.0906 15.3251C18.0552 15.6315 18.0589 16.0731 17.9462 16.4816ZM20.3228 17.7827C21.5934 16.0595 22.8562 14.3297 24.1364 12.6131C24.6844 11.878 25.2807 11.8069 25.959 12.4367C27.2186 13.6063 28.1595 15.0106 28.7602 16.6208C29.0858 17.4921 28.7982 18.0015 27.8999 18.2324C25.8581 18.7576 23.8105 19.2606 21.7646 19.7704C21.6416 19.8006 21.5123 19.8079 21.41 19.8223C20.8539 19.8068 20.4741 19.5424 20.2303 19.0887C19.991 18.6419 20.0142 18.2003 20.3228 17.7827ZM28.7808 26.3465C28.0859 27.7169 27.1449 28.8991 25.9911 29.9104C25.8132 30.0665 25.6066 30.2013 25.393 30.3033C24.8903 30.5431 24.4233 30.4437 24.1298 29.9793C22.917 28.0616 21.7167 26.1354 20.5323 24.2005C20.2289 23.7018 20.3828 23.2072 20.7375 22.7818C21.077 22.3752 21.5179 22.222 22.0279 22.3911C24.1209 23.0831 26.2095 23.7854 28.2999 24.4852C28.7772 24.6446 29.0486 24.9562 29.0788 25.4965C28.9816 25.7804 28.9156 26.0806 28.7808 26.3465Z" fill="white"/>
</svg>
