<svg width="126" height="114" viewBox="0 0 126 114" fill="none" xmlns="http://www.w3.org/2000/svg">
<g opacity="0.3" clip-path="url(#clip0)">
<path d="M19 94.2519V78.2204C19.0218 78.1635 19.038 78.1047 19.0484 78.0447C19.1439 76.7308 19.5382 75.4563 20.201 74.3188C22.0199 71.254 24.7216 69.6707 28.2694 69.6014C29.9845 69.5667 31.6996 69.6014 33.4147 69.6014H33.7535V39.8498L33.5806 39.7989C29.2007 38.7126 26.3814 35.0999 26.3814 30.5674C26.3814 26.9894 26.3675 23.4022 26.3929 19.8358C26.399 19.071 26.484 18.3088 26.6465 17.5615C27.5294 13.4773 31.333 10.4333 35.4986 10.4333H57.9147C57.9309 10.3755 57.9401 10.3501 57.947 10.3223C58.3381 8.50379 59.2683 6.84624 60.6156 5.56716C61.9629 4.28808 63.6643 3.4472 65.4967 3.15486C65.8932 3.08552 66.292 3.05085 66.6908 3H78.3092C78.7172 3.05316 79.1253 3.09245 79.531 3.15948C81.3251 3.45077 82.9928 4.26899 84.3231 5.51066C85.6534 6.75232 86.5866 8.36166 87.0046 10.1351C87.0622 10.3871 87.1636 10.4402 87.408 10.4402C94.7648 10.431 102.122 10.431 109.478 10.4402C111.151 10.4176 112.794 10.8842 114.206 11.7831C117.097 13.6322 118.586 16.3018 118.619 19.7434C118.649 22.6927 118.619 25.6419 118.619 28.5912C118.619 29.4603 118.637 30.3293 118.596 31.1961C118.518 33.0409 117.888 34.8195 116.788 36.3C115.688 37.7806 114.168 38.8944 112.427 39.4961C112.039 39.6325 111.643 39.7273 111.263 39.8521V69.5945H111.611C113.317 69.5945 115.022 69.5945 116.728 69.5945C117.106 69.5975 117.483 69.6214 117.858 69.6661C119.828 69.8965 121.67 70.7592 123.111 72.1254C124.552 73.4917 125.513 75.2883 125.852 77.2473C125.908 77.5501 125.954 77.8575 126.005 78.1719V94.2981C125.988 94.3582 125.968 94.416 125.954 94.4761C125.843 95.1768 125.695 95.8712 125.511 96.5563C124.905 98.3988 123.734 100.003 122.166 101.14C120.598 102.277 118.712 102.889 116.777 102.889H111.244C111.244 103.063 111.244 103.19 111.244 103.319C111.226 104.112 111.256 104.909 111.18 105.698C110.987 107.599 110.209 109.394 108.953 110.832C107.696 112.269 106.024 113.279 104.169 113.72C103.671 113.838 103.164 113.903 102.659 113.993H42.3475C41.9072 113.919 41.4623 113.859 41.0266 113.762C37.3382 112.988 34.3829 109.851 33.8803 106.134C33.7535 105.178 33.7973 104.2 33.7628 103.231C33.7628 103.123 33.7628 103.016 33.7628 102.889H33.4077C31.7295 102.889 30.0536 102.889 28.3754 102.889C27.906 102.887 27.4371 102.857 26.9715 102.797C25.0928 102.536 23.3402 101.7 21.9524 100.404C20.5647 99.1075 19.6093 97.4137 19.2167 95.5532C19.1291 95.1232 19.0715 94.6864 19 94.2519ZM37.4696 40.0439V104.762C37.4677 105.578 37.6488 106.385 37.9995 107.123C38.3502 107.86 38.8616 108.509 39.4959 109.021C40.5909 109.946 41.8772 110.293 43.2903 110.293C62.6267 110.293 81.9615 110.293 101.295 110.293C101.571 110.293 101.848 110.293 102.125 110.293C103.562 110.261 104.931 109.668 105.939 108.64C106.947 107.611 107.515 106.229 107.521 104.787C107.521 83.3038 107.521 61.8191 107.521 40.3328C107.521 40.2358 107.521 40.1387 107.507 40.0508H100.188V51.1037C100.783 51.1037 101.362 51.1037 101.938 51.1037C102.168 51.1043 102.396 51.1394 102.616 51.2077C103.029 51.3495 103.379 51.6339 103.603 52.0104C103.827 52.3869 103.91 52.8308 103.838 53.2631C103.766 53.6954 103.543 54.0878 103.209 54.3705C102.875 54.6532 102.451 54.8077 102.014 54.8065H100.17C100.17 54.9475 100.17 55.0561 100.17 55.1647C100.151 55.9205 100.193 56.6856 100.101 57.4345C99.6396 61.1881 95.4049 63.3862 92.0784 61.581C90.1328 60.527 89.1323 58.8559 89.0977 56.6278C89.0977 56.0292 89.0977 55.4305 89.0977 54.8065H87.2351C86.7745 54.8016 86.3325 54.624 85.9959 54.3088C85.6593 53.9935 85.4525 53.5634 85.4163 53.103C85.3735 52.6512 85.502 52.1997 85.7763 51.8386C86.0505 51.4775 86.4504 51.2333 86.8962 51.1545C87.5094 51.1014 88.1251 51.0829 88.7404 51.0991H89.0793V40.0532H55.9276V51.1037C56.5316 51.1037 57.1217 51.0713 57.7073 51.1037C58.063 51.126 58.4101 51.2229 58.7262 51.388C59.0735 51.594 59.3413 51.9113 59.4865 52.2888C59.6316 52.6663 59.6456 53.0818 59.5261 53.4682C59.4157 53.8529 59.1826 54.1908 58.8624 54.43C58.5422 54.6692 58.1527 54.7966 57.7534 54.7926H55.9092C55.9092 54.9521 55.9092 55.0815 55.9092 55.2086C55.9301 55.9375 55.907 56.6669 55.84 57.3929C55.4989 59.6765 54.2079 61.2482 52.0179 61.9277C49.7842 62.6211 47.8063 62.0456 46.218 60.3098C45.3008 59.3117 44.8051 57.9962 44.8348 56.6394V54.7903H42.9906C42.5253 54.7917 42.0766 54.6167 41.7346 54.3003C41.3926 53.984 41.1825 53.5497 41.1464 53.0845C41.1038 52.6232 41.2392 52.163 41.5248 51.7988C41.8105 51.4346 42.2245 51.1941 42.6817 51.1268C43.2875 51.0786 43.8955 51.0639 44.5029 51.0829H44.8187V40.0439H37.4696ZM55.9276 14.1569V36.2834H89.0793V14.1569H55.9276ZM100.188 36.3111H100.488C103.476 36.3111 106.463 36.3111 109.451 36.3111C109.691 36.3131 109.93 36.2953 110.168 36.2579C113.003 35.7957 114.907 33.5352 114.907 30.6552V19.6972C114.909 18.9681 114.768 18.2458 114.49 17.5718C114.213 16.8978 113.806 16.2854 113.291 15.7699C112.777 15.2544 112.167 14.8458 111.494 14.5678C110.822 14.2898 110.102 14.1478 109.375 14.1499C106.415 14.1499 103.455 14.1499 100.495 14.1499H100.186L100.188 36.3111ZM44.8187 14.1522C44.7518 14.1522 44.6988 14.1522 44.6458 14.1522C41.5937 14.1522 38.5415 14.1268 35.4894 14.1522C34.0529 14.1782 32.6837 14.7674 31.6753 15.7936C30.667 16.8197 30.0997 18.2011 30.0951 19.6417C30.0951 23.3676 30.0951 27.0935 30.0951 30.8193C30.1096 32.2757 30.6948 33.668 31.7243 34.6955C32.7539 35.723 34.1451 36.3033 35.5977 36.3111H44.8187V14.1522ZM111.249 99.1727C111.316 99.1727 111.359 99.1889 111.403 99.1889C113.164 99.1889 114.926 99.1889 116.687 99.1889C117.419 99.1984 118.146 99.0619 118.826 98.7874C119.506 98.5129 120.124 98.1058 120.645 97.5897C121.167 97.0737 121.581 96.4589 121.863 95.7812C122.146 95.1035 122.291 94.3762 122.291 93.6417C122.3 88.7108 122.3 83.7838 122.291 78.8606C122.294 78.1261 122.15 77.3983 121.87 76.7199C121.589 76.0416 121.176 75.4261 120.655 74.9096C120.134 74.3931 119.515 73.986 118.836 73.7119C118.156 73.4378 117.429 73.3023 116.696 73.3134H111.578C111.472 73.3134 111.366 73.3273 111.251 73.3342L111.249 99.1727ZM33.7535 99.1889V73.325C33.6775 73.325 33.6221 73.3111 33.5668 73.3111C31.7434 73.3111 29.9176 73.2903 28.0919 73.3111C26.6598 73.3518 25.2993 73.9478 24.2967 74.9738C23.294 75.9998 22.7274 77.3757 22.716 78.8121C22.716 83.7121 22.716 88.6114 22.716 93.5099C22.7168 93.7863 22.7315 94.0625 22.7598 94.3374C23.0342 96.977 25.4178 99.1589 28.0619 99.1912C29.2491 99.2051 30.4386 99.1912 31.6281 99.2028L33.7535 99.1889ZM52.1954 36.2972V14.1569H48.5532V36.2972H52.1954ZM92.8161 14.1522V36.2834H96.4422V14.1522H92.8161ZM61.7737 10.4148H83.2309C83.2032 10.3339 83.1848 10.2738 83.1617 10.2137C82.7513 9.19621 82.049 8.32367 81.1437 7.70652C80.2385 7.08936 79.171 6.75533 78.0764 6.74669C74.3788 6.74669 70.6819 6.74669 66.9859 6.74669C66.1806 6.73782 65.3835 6.90868 64.6523 7.24688C63.921 7.58509 63.274 8.08216 62.7581 8.70209C62.3219 9.20335 61.9876 9.78512 61.7737 10.4148ZM48.5486 51.076H52.1793V40.0532H48.5486V51.076ZM96.456 40.0508H92.8161V51.076H96.456V40.0508ZM48.537 54.8203C48.537 55.4768 48.5209 56.1031 48.537 56.7295C48.5601 57.2065 48.7674 57.6558 49.1151 57.9821C49.4629 58.3084 49.9236 58.4862 50.3998 58.4778C50.8761 58.4694 51.3303 58.2755 51.6663 57.937C52.0024 57.5986 52.1938 57.1423 52.2001 56.6648C52.2001 56.1216 52.2001 55.5761 52.2001 55.0307C52.2001 54.9613 52.1839 54.892 52.177 54.8203H48.537ZM92.7976 54.8203C92.7976 55.4698 92.7792 56.1054 92.7976 56.7388C92.8145 57.1912 92.9983 57.6212 93.3136 57.9454C93.6288 58.2695 94.0529 58.4647 94.5035 58.4931C94.9549 58.5305 95.4037 58.3948 95.7593 58.1134C96.1148 57.832 96.3507 57.4258 96.4192 56.9768C96.465 56.2589 96.4703 55.5389 96.4353 54.8203H92.7976Z" fill="#FFAF39"/>
<path d="M37.4696 40.0439H44.8187V51.1037H44.5052C43.8978 51.0848 43.2898 51.0994 42.6841 51.1476C42.2269 51.2149 41.8128 51.4554 41.5272 51.8196C41.2415 52.1838 41.1061 52.644 41.1488 53.1053C41.1848 53.5705 41.3949 54.0048 41.737 54.3212C42.079 54.6375 42.5276 54.8125 42.993 54.8111H44.8371V56.6602C44.8074 58.017 45.3032 59.3325 46.2203 60.3306C47.8086 62.0664 49.7865 62.642 52.0203 61.9485C54.2103 61.269 55.5012 59.6973 55.8424 57.4137C55.9094 56.6877 55.9325 55.9583 55.9115 55.2295C55.9115 55.1024 55.9115 54.9729 55.9115 54.8134H57.7557C58.155 54.8174 58.5445 54.69 58.8647 54.4508C59.1849 54.2116 59.418 53.8738 59.5284 53.489C59.6479 53.1026 59.634 52.6871 59.4888 52.3096C59.3437 51.9322 59.0758 51.6148 58.7285 51.4088C58.4124 51.2437 58.0653 51.1468 57.7096 51.1245C57.1241 51.0806 56.5339 51.1245 55.93 51.1245V40.0532H89.0793V51.1037H88.7335C88.1182 51.0875 87.5025 51.106 86.8893 51.1592C86.4435 51.2379 86.0436 51.4822 85.7694 51.8433C85.4951 52.2044 85.3666 52.6558 85.4094 53.1077C85.4456 53.568 85.6524 53.9982 85.989 54.3134C86.3256 54.6287 86.7676 54.8062 87.2282 54.8111H89.1024C89.1024 55.4352 89.1024 56.0338 89.1024 56.6325C89.1369 58.8606 90.1374 60.5317 92.083 61.5857C95.4095 63.3908 99.6534 61.1927 100.105 57.4391C100.197 56.6902 100.156 55.9252 100.174 55.1694C100.174 55.0607 100.174 54.9521 100.174 54.8111H102.019C102.456 54.8124 102.879 54.6579 103.213 54.3752C103.547 54.0925 103.77 53.7 103.843 53.2677C103.915 52.8355 103.832 52.3915 103.608 52.0151C103.384 51.6386 103.034 51.3541 102.62 51.2124C102.401 51.144 102.172 51.1089 101.943 51.1083C101.366 51.0945 100.79 51.1083 100.193 51.1083V40.0509H107.521C107.521 40.1387 107.535 40.2358 107.535 40.3329C107.535 61.8191 107.535 83.3038 107.535 104.787C107.524 106.227 106.953 107.606 105.944 108.63C104.935 109.655 103.567 110.245 102.132 110.274C101.855 110.274 101.578 110.274 101.302 110.274C81.9684 110.274 62.6336 110.274 43.2972 110.274C41.8841 110.274 40.5978 109.921 39.5028 109.003C38.8685 108.49 38.3571 107.841 38.0064 107.104C37.6557 106.367 37.4746 105.56 37.4765 104.743V40.0255L37.4696 40.0439Z" fill="#FFAF39"/>
<path d="M55.9276 14.1569H89.0793V36.2834H55.9276V14.1569Z" fill="#FFAF39"/>
<path d="M100.188 36.3111V14.1406H100.497C103.457 14.1406 106.417 14.1406 109.377 14.1406C110.104 14.1385 110.824 14.2805 111.497 14.5586C112.169 14.8366 112.78 15.2451 113.294 15.7606C113.808 16.2762 114.215 16.8885 114.493 17.5625C114.77 18.2365 114.912 18.9588 114.909 19.6879V30.6436C114.909 33.5236 113.005 35.7794 110.17 36.2463C109.933 36.2837 109.693 36.3015 109.453 36.2995C106.465 36.2995 103.478 36.2995 100.49 36.2995L100.188 36.3111Z" fill="#FFAF39"/>
<path d="M44.8187 14.1523V36.3112H35.5978C34.1436 36.3045 32.7504 35.7241 31.7198 34.6955C30.6891 33.6669 30.1038 32.2728 30.0905 30.8148C30.0813 27.0889 30.0813 23.363 30.0905 19.6371C30.0952 18.1954 30.6634 16.813 31.6732 15.7866C32.6831 14.7603 34.054 14.1719 35.4917 14.1477C38.5438 14.1153 41.596 14.1477 44.6481 14.1477C44.7011 14.1407 44.7542 14.1477 44.8187 14.1523Z" fill="#FFAF39"/>
<path d="M111.249 99.1728V73.3319C111.364 73.3319 111.479 73.3111 111.576 73.3111H116.694C117.426 73.3 118.154 73.4355 118.833 73.7096C119.513 73.9837 120.131 74.3908 120.652 74.9073C121.173 75.4238 121.586 76.0393 121.867 76.7177C122.148 77.3961 122.291 78.1238 122.289 78.8583C122.307 83.7892 122.307 88.7162 122.289 93.6394C122.289 94.3739 122.143 95.1012 121.861 95.7789C121.578 96.4566 121.164 97.0714 120.643 97.5874C120.122 98.1035 119.503 98.5106 118.824 98.7851C118.144 99.0596 117.417 99.1961 116.685 99.1866C114.923 99.1866 113.162 99.1866 111.401 99.1866C111.359 99.1889 111.316 99.1797 111.249 99.1728Z" fill="#FFAF39"/>
<path d="M33.7535 99.1889H31.635C30.4455 99.1889 29.256 99.1889 28.0688 99.1773C25.4201 99.1496 23.0365 96.9677 22.7668 94.3235C22.7384 94.0486 22.7238 93.7724 22.723 93.4961C22.723 88.596 22.723 83.6967 22.723 78.7982C22.7379 77.3647 23.3057 75.9925 24.3075 74.9696C25.3093 73.9466 26.6672 73.3522 28.0965 73.3111C29.9222 73.2857 31.748 73.3111 33.5714 73.3111C33.6267 73.3111 33.6821 73.3111 33.7581 73.325L33.7535 99.1889Z" fill="#FFAF39"/>
<path d="M52.1954 36.2972H48.5532V14.1569H52.1954V36.2972Z" fill="#FFAF39"/>
<path d="M92.816 14.1522H96.4422V36.2833H92.816V14.1522Z" fill="#FFAF39"/>
<path d="M61.7737 10.4147C61.9876 9.78506 62.322 9.20328 62.7581 8.70202C63.274 8.08209 63.9211 7.58502 64.6523 7.24682C65.3835 6.90861 66.1807 6.73775 66.9859 6.74662C70.6835 6.73737 74.3803 6.73737 78.0764 6.74662C79.171 6.75526 80.2385 7.08929 81.1437 7.70645C82.049 8.3236 82.7513 9.19614 83.1617 10.2136C83.1848 10.2737 83.2032 10.3338 83.2309 10.4147H61.7737Z" fill="#FFAF39"/>
<path d="M48.5486 51.0759V40.0531H52.1793V51.0759H48.5486Z" fill="#FFAF39"/>
<path d="M96.456 40.0508V51.076H92.816V40.0508H96.456Z" fill="#FFAF39"/>
<path d="M48.537 54.8204H52.1816C52.1816 54.892 52.2024 54.9614 52.2047 55.0307C52.2047 55.5762 52.2047 56.1217 52.2047 56.6648C52.1984 57.1423 52.007 57.5986 51.671 57.9371C51.3349 58.2755 50.8807 58.4695 50.4045 58.4779C49.9283 58.4863 49.4675 58.3085 49.1198 57.9821C48.772 57.6558 48.5647 57.2065 48.5417 56.7296C48.5209 56.1032 48.537 55.4676 48.537 54.8204Z" fill="#FFAF39"/>
<path d="M92.8 54.825H96.4422C96.4773 55.5436 96.4719 56.2635 96.4261 56.9815C96.3576 57.4304 96.1218 57.8366 95.7662 58.118C95.4107 58.3995 94.9619 58.5351 94.5104 58.4977C94.0598 58.4694 93.6357 58.2742 93.3205 57.95C93.0053 57.6259 92.8214 57.1958 92.8046 56.7434C92.7815 56.1101 92.8 55.4676 92.8 54.825Z" fill="#FFAF39"/>
</g>
<path d="M77.1035 68.1379H26.8966C25.9063 68.1379 25.1035 68.9408 25.1035 69.931V98.6207C25.1035 99.6109 25.9063 100.414 26.8966 100.414H77.1035C78.0937 100.414 78.8966 99.6109 78.8966 98.6207V69.931C78.8966 68.9408 78.0937 68.1379 77.1035 68.1379ZM75.2114 71.7241C74.2886 79.8877 67.3876 86.0593 59.1724 86.069H53.7931V84.2759C53.7931 83.2856 52.9902 82.4828 52 82.4828C51.0098 82.4828 50.2069 83.2856 50.2069 84.2759V86.069H44.8276C36.6124 86.0593 29.7114 79.8877 28.7886 71.7241H75.2114ZM75.3104 96.8276H28.6897V81.2369C32.3731 86.5076 38.3968 89.6499 44.8276 89.6552H50.2069V91.4483C50.2069 92.4385 51.0098 93.2414 52 93.2414C52.9902 93.2414 53.7931 92.4385 53.7931 91.4483V89.6552H59.1724C65.6033 89.6499 71.627 86.5076 75.3104 81.2369V96.8276Z" fill="#FFAF39"/>
<path d="M95.0345 64.5517H89.6552V35.6826C93.8271 34.8246 96.8223 31.1552 96.8276 26.8966V16.1379C96.8215 11.1885 92.8115 7.17854 87.8621 7.17241H66.1653C65.3073 3.00047 61.6379 0.00525323 57.3793 0H46.6207C42.3621 0.00525323 38.6927 3.00047 37.8347 7.17241H16.1379C11.1885 7.17854 7.17854 11.1885 7.17241 16.1379V26.8966C7.17767 31.1552 10.1729 34.8246 14.3448 35.6826V64.5517H8.96552C4.0161 64.5579 0.00612878 68.5678 0 73.5172V87.8621C0.00612878 92.8115 4.0161 96.8215 8.96552 96.8276H14.3448V98.6207C14.351 103.57 18.3609 107.58 23.3103 107.586H80.6897C85.6391 107.58 89.649 103.57 89.6552 98.6207V96.8276H95.0345C99.9839 96.8215 103.994 92.8115 104 87.8621V73.5172C103.994 68.5678 99.9839 64.5579 95.0345 64.5517ZM93.2414 16.1379V26.8966C93.2414 29.8673 90.8328 32.2759 87.8621 32.2759H78.8966V10.7586H87.8621C90.8328 10.7586 93.2414 13.1672 93.2414 16.1379ZM75.3103 10.7586V32.2759H71.7241V10.7586H75.3103ZM71.7241 50.2069H75.3103V52C75.3103 52.9902 74.5075 53.7931 73.5172 53.7931C72.527 53.7931 71.7241 52.9902 71.7241 52V50.2069ZM71.7241 46.6207V35.8621H75.3103V46.6207H71.7241ZM68.1379 10.7586V32.2759H35.8621V10.7586H68.1379ZM46.6207 3.58621H57.3793C59.6583 3.58883 61.6896 5.02472 62.4522 7.17241H41.5478C42.3104 5.02472 44.3417 3.58883 46.6207 3.58621ZM32.2759 10.7586V32.2759H28.6897V10.7586H32.2759ZM28.6897 50.2069H32.2759V52C32.2759 52.9902 31.473 53.7931 30.4828 53.7931C29.4925 53.7931 28.6897 52.9902 28.6897 52V50.2069ZM28.6897 46.6207V35.8621H32.2759V46.6207H28.6897ZM10.7586 26.8966V16.1379C10.7586 13.1672 13.1672 10.7586 16.1379 10.7586H25.1034V32.2759H16.1379C13.1672 32.2759 10.7586 29.8673 10.7586 26.8966ZM8.96552 93.2414C5.99481 93.2414 3.58621 90.8328 3.58621 87.8621V73.5172C3.58621 70.5465 5.99481 68.1379 8.96552 68.1379H14.3448V93.2414H8.96552ZM86.069 98.6207C86.069 101.591 83.6604 104 80.6897 104H23.3103C20.3396 104 17.931 101.591 17.931 98.6207V35.8621H25.1034V46.6207H23.3103C22.3201 46.6207 21.5172 47.4236 21.5172 48.4138C21.5172 49.404 22.3201 50.2069 23.3103 50.2069H25.1034V52C25.1034 54.9707 27.5121 57.3793 30.4828 57.3793C33.4535 57.3793 35.8621 54.9707 35.8621 52V50.2069H37.6552C38.6454 50.2069 39.4483 49.404 39.4483 48.4138C39.4483 47.4236 38.6454 46.6207 37.6552 46.6207H35.8621V35.8621H68.1379V46.6207H66.3448C65.3546 46.6207 64.5517 47.4236 64.5517 48.4138C64.5517 49.404 65.3546 50.2069 66.3448 50.2069H68.1379V52C68.1379 54.9707 70.5465 57.3793 73.5172 57.3793C76.4879 57.3793 78.8966 54.9707 78.8966 52V50.2069H80.6897C81.6799 50.2069 82.4828 49.404 82.4828 48.4138C82.4828 47.4236 81.6799 46.6207 80.6897 46.6207H78.8966V35.8621H86.069V98.6207ZM100.414 87.8621C100.414 90.8328 98.0052 93.2414 95.0345 93.2414H89.6552V68.1379H95.0345C98.0052 68.1379 100.414 70.5465 100.414 73.5172V87.8621Z" fill="#FFAF39"/>
<defs>
<clipPath id="clip0">
<rect width="107" height="111" fill="white" transform="translate(19 3)"/>
</clipPath>
</defs>
</svg>
