<svg width="71" height="70" viewBox="0 0 71 70" fill="none" xmlns="http://www.w3.org/2000/svg">
<path d="M41.1924 35.0007L68.7202 7.47295C70.4305 5.76414 70.4305 2.99152 68.7202 1.2827C67.0099 -0.427568 64.2402 -0.427568 62.53 1.2827L35.0022 28.8105L7.47295 1.2827C5.76268 -0.427568 2.99297 -0.427568 1.2827 1.2827C-0.427568 2.99152 -0.427568 5.76414 1.2827 7.47295L28.8119 35.0007L1.2827 62.5285C-0.427568 64.2373 -0.427568 67.0099 1.2827 68.7188C2.13784 69.5724 3.25856 70 4.37783 70C5.49709 70 6.61782 69.5724 7.47295 68.7173L35.0022 41.1895L62.53 68.7173C63.3851 69.5724 64.5058 70 65.6251 70C66.7444 70 67.8651 69.5724 68.7202 68.7173C70.4305 67.0085 70.4305 64.2359 68.7202 62.527L41.1924 35.0007Z" fill="black"/>
</svg>
