<svg width="135" height="124" viewBox="0 0 135 124" fill="none" xmlns="http://www.w3.org/2000/svg">
<circle opacity="0.3" cx="76" cy="59" r="59" fill="#FFAF39"/>
<path d="M90.8586 112.754C90.2093 111.635 88.7757 111.254 87.6553 111.904L87.5651 111.956C86.4457 112.605 86.0649 114.039 86.7141 115.159C87.1488 115.908 87.9352 116.327 88.7433 116.327C89.1422 116.327 89.5472 116.224 89.9173 116.01L90.0075 115.958C91.1269 115.308 91.5078 113.874 90.8586 112.754Z" fill="#FFAF39"/>
<path d="M111.96 34.0186C103.948 20.1424 91.013 10.2168 75.5362 6.06979C60.0599 1.92274 43.8945 4.05111 30.0183 12.0623C16.1423 20.0735 6.2165 33.0092 2.06968 48.4857C-2.07713 63.9623 0.0510042 80.1279 8.06221 94.0039C15.2484 106.451 26.67 115.911 40.223 120.64C46.6475 122.881 53.3542 124 60.0505 124C67.3314 124 74.5992 122.677 81.469 120.036C82.6772 119.572 83.28 118.216 82.8155 117.008C82.3509 115.8 80.9948 115.196 79.7871 115.662C61.5011 122.69 41.7052 119.496 26.9154 108.395L29.0152 97.4344L30.027 97.1058C33.8504 95.8636 35.9504 91.7424 34.7086 87.9188L33.9661 85.6338C33.7943 85.1051 33.7953 84.5461 33.9685 84.0178C34.6198 82.0322 34.3871 79.8598 33.3298 78.0569C32.2725 76.2544 30.4901 74.9904 28.4391 74.5893L23.1492 73.5557L12.9426 65.7956C12.3311 65.3306 11.5307 65.1949 10.8 65.432L4.8243 67.3731C4.69751 65.2359 4.69563 63.0993 4.8161 60.974C5.05188 61.1936 5.2054 61.3429 5.29985 61.4409C5.41681 61.6356 5.56165 61.8142 5.73134 61.9689C6.21931 62.4133 6.66134 62.6148 7.58947 62.6148C8.44237 62.6146 9.70495 62.4447 11.7897 62.1367C13.7669 61.8445 15.7338 61.5152 15.7533 61.5119C16.5415 61.3799 17.2078 60.8549 17.5214 60.1202C17.835 59.3852 17.7522 58.5412 17.302 57.8807L14.4283 53.6657L18.5444 50.7224C18.8187 50.5262 19.0474 50.2733 19.215 49.9808L25.5954 38.8421L28.1672 36.0863C30.7953 33.2696 31.5453 29.1485 30.0776 25.587C29.2118 23.4863 27.6996 21.7373 25.8082 20.5587C27.8567 18.9483 30.0408 17.4614 32.3621 16.1215C40.8788 11.2043 50.1732 8.82136 59.3699 8.73019L55.1849 13.98L39.6657 19.4205C39.0355 19.6413 38.5292 20.1209 38.2747 20.7382L33.9406 31.2448C33.6329 31.9913 33.7306 32.843 34.1996 33.5002L40.5296 42.3671C39.623 43.1942 38.7406 44.3989 37.6866 45.8947C37.2244 46.5507 36.788 47.1702 36.4864 47.5175C36.2241 47.8199 35.9616 48.1152 35.7015 48.4077C34.34 49.9393 32.9323 51.5235 31.9322 53.6394C29.7333 58.2939 30.1774 63.7038 33.0912 67.758C35.9086 71.6779 40.5535 73.6706 45.511 73.0875C46.3187 72.9928 47.0717 72.8064 47.8004 72.626C49.8097 72.1289 50.4463 72.0792 51.0908 72.6825C51.4044 72.9761 51.4332 73.0317 51.4269 74.0275C51.4225 74.6613 51.4175 75.4497 51.636 76.35C51.9859 77.7902 52.8904 78.7856 53.6169 79.5853C53.9781 79.9826 54.3517 80.3937 54.4668 80.6695C55.1978 82.4212 54.8795 83.3913 54.182 85.5171C54.1222 85.699 54.0613 85.8846 54.0001 86.0749C52.9405 89.355 54.4175 92.6086 55.7207 95.4788C56.144 96.4109 56.5436 97.2908 56.8054 98.0684C58.9126 104.321 60.4923 105.753 61.7601 106.33C62.4241 106.632 63.1113 106.764 63.8055 106.764C67.184 106.764 70.7095 103.627 72.329 101.638C73.3462 100.389 73.5968 99.139 73.7796 98.2257C73.8707 97.7715 73.9425 97.4129 74.0793 97.1785C74.2889 96.8199 74.5357 96.5419 74.8481 96.1899C75.4765 95.4823 76.2586 94.602 76.7651 93.0061C77.1499 91.7939 77.4295 91.4967 78.3555 90.5105C78.5168 90.3392 78.6886 90.1559 78.873 89.9553C81.9947 86.5585 81.1908 83.9637 80.3393 81.2163C79.6228 78.9047 80.876 77.4262 83.906 74.6046C85.2195 73.3814 86.5774 72.1167 87.6272 70.597C88.0866 69.9318 89.4842 67.9085 88.6193 65.9029C87.7716 63.9365 85.617 63.606 83.8859 63.3407C83.2022 63.2357 82.1691 63.0773 81.8402 62.8624C80.3901 61.9143 79.503 59.9357 78.645 58.022C78.4741 57.6412 78.3056 57.2652 78.1348 56.9003C77.8301 56.2492 77.5256 55.4615 77.2033 54.6276C76.3507 52.4207 75.3843 49.9192 73.7393 48.1754C72.2606 46.6086 69.4732 45.8539 67.0138 45.1878C66.1867 44.964 65.406 44.7526 64.8911 44.5625C64.4596 44.4031 63.9913 44.3743 63.5446 44.4793C62.3477 44.7599 61.6009 45.069 61.0464 45.5134C60.8999 45.6308 60.4661 46.0163 60.212 46.636C59.354 46.2242 58.1741 45.4379 57.448 44.9539C57.433 44.9438 57.4178 44.9338 57.4028 44.9237C57.6475 43.9445 57.426 43.1586 57.194 42.6678C55.8847 39.8984 51.5387 40.1152 50.6814 40.1881C50.1943 40.2289 49.5781 40.2507 48.9263 40.2737C47.9026 40.31 46.771 40.3508 45.6514 40.4764L45.7091 40.3156C46.5589 37.9477 48.8202 36.3568 51.336 36.3568H52.6684C53.9624 36.3568 55.0119 35.3072 55.0119 34.0133C55.0119 32.7193 53.9624 31.6697 52.6684 31.6697H51.336C47.601 31.6697 44.1807 33.6354 42.2637 36.7294L38.768 31.8326L42.2073 23.4961L57.3721 18.1795C57.7879 18.0337 58.1544 17.7736 58.4294 17.4288L65.1707 8.97277C82.3959 10.6113 98.6101 20.269 107.901 36.3617C110.376 40.6482 112.207 45.1609 113.424 49.7764L112.43 50.6624C111.133 51.8195 110.374 53.4791 110.345 55.2161C110.344 55.2351 110.344 55.2538 110.343 55.2726L108.725 50.8213C108.483 50.1571 108.128 49.5479 107.669 49.011L104.782 45.6306C103.662 44.3202 102.033 43.569 100.31 43.569H96.7756C95.521 43.569 94.3744 44.2562 93.7826 45.3617C93.1908 46.4675 93.2555 47.803 93.9514 48.8464L94.309 49.3834C92.0253 51.3472 89.3839 52.9187 86.5713 53.9786L81.7268 44.6989V42.6287C81.7268 41.9884 81.4648 41.3755 81.0014 40.9337L76.639 36.769C76.3983 36.5394 76.1114 36.3636 75.7976 36.2532L71.8706 34.8732C70.6488 34.4433 69.3114 35.0862 68.8825 36.3071C68.4534 37.5284 69.0953 38.866 70.3164 39.2952L73.7674 40.508L77.0397 43.6316V45.2741C77.0397 45.6517 77.1312 46.0238 77.306 46.3588L83.3709 57.9761C83.9163 59.0214 85.1543 59.4991 86.2592 59.0903L88.0252 58.4392C92.1279 56.9261 95.9307 54.4921 99.0226 51.4007C99.8124 50.6106 99.9352 49.3733 99.3153 48.4435L99.1906 48.2563H100.31C100.66 48.2563 100.991 48.4089 101.218 48.6751L104.105 52.0555C104.199 52.1645 104.27 52.2878 104.32 52.423L107.506 61.1847C107.78 61.9375 108.419 62.4981 109.201 62.6716C109.369 62.7088 109.539 62.7271 109.708 62.7271C110.323 62.7271 110.921 62.485 111.365 62.0406L112.882 60.524C113.842 59.5633 114.504 58.3478 114.819 57.0004C117.165 75.7985 109.794 95.2442 94.2143 107.473C93.196 108.271 93.0183 109.745 93.8178 110.763C94.6168 111.781 96.0896 111.959 97.1082 111.159C108.356 102.331 116.084 89.7042 118.867 75.6044C121.676 61.3687 119.223 46.5995 111.96 34.0186ZM11.0817 70.2689L20.7457 77.6168C21.0314 77.834 21.3628 77.9826 21.7148 78.0513L27.5395 79.1894C28.283 79.3348 28.9031 79.7744 29.2864 80.4279C29.6696 81.0811 29.7502 81.8369 29.5144 82.5567C29.0292 84.0363 29.0269 85.6013 29.5081 87.0818L30.2506 89.3665C30.6942 90.732 29.9438 92.2041 28.5785 92.6478L26.2495 93.4046C25.437 93.6685 24.8327 94.3538 24.6722 95.1924L22.7977 104.977C18.6766 101.206 15.0583 96.7477 12.1214 91.6606C8.53822 85.455 6.29947 78.836 5.31274 72.1432L11.0817 70.2689ZM24.7404 32.8885L21.9834 35.8423C21.8604 35.9743 21.7528 36.1201 21.663 36.2766L15.4024 47.207L9.83807 51.1857C8.80166 51.9268 8.54713 53.3596 9.26479 54.4124L11.3458 57.4649C10.1463 57.6435 9.06979 57.7907 8.35401 57.8687C8.21643 57.7368 8.07252 57.603 7.92369 57.4647C7.36658 56.9472 6.59244 56.256 5.43837 55.2461C7.34174 43.4656 13.0183 32.3675 21.9462 23.896C23.6557 24.4343 25.0587 25.7096 25.744 27.3729C26.5151 29.2437 26.1209 31.4089 24.7404 32.8885ZM43.8491 45.6955C44.8944 45.1072 47.3206 45.0212 49.0921 44.9584C49.802 44.9333 50.4728 44.9094 51.0718 44.8592C51.388 44.8327 51.7391 44.8377 52.0703 44.8635C51.9224 45.2431 51.8743 45.6599 51.9385 46.0733C52.0513 46.8006 52.4996 47.4322 53.1484 47.7793C53.5881 48.0146 54.2 48.4227 54.8479 48.8546C56.6795 50.0757 58.7558 51.4597 60.7063 51.5839C62.4801 51.699 63.467 50.6882 63.8899 50.2576C63.9236 50.2234 63.9555 50.1892 63.9892 50.158C64.2273 49.9639 64.4505 49.7038 64.6164 49.39C64.9912 49.4971 65.3849 49.6037 65.7885 49.7132C67.1763 50.0889 69.7593 50.7882 70.33 51.3929C71.3437 52.4675 72.1338 54.5129 72.8311 56.3174C73.1833 57.2294 73.5161 58.09 73.8895 58.888C74.0498 59.2305 74.2075 59.5832 74.3679 59.9404C75.4493 62.3526 76.6751 65.0868 79.2755 66.7865C80.4546 67.5574 81.9 67.7789 83.1755 67.9746C83.3297 67.9982 83.5064 68.0254 83.6859 68.0549C82.9289 69.111 81.851 70.1146 80.7122 71.1752C77.8108 73.8771 74.2 77.2399 75.8629 82.6045C76.6479 85.1377 76.6844 85.4114 75.4223 86.7844C75.2503 86.9717 75.09 87.1423 74.9397 87.3021C73.8588 88.4529 73.005 89.3618 72.2981 91.5884C72.0928 92.235 71.8268 92.5346 71.3437 93.0783C70.9575 93.5133 70.4763 94.0552 70.0326 94.8146C69.501 95.7244 69.3253 96.6005 69.1844 97.3044C69.0454 97.9969 68.9667 98.3445 68.6948 98.6783C68.0758 99.4381 66.9213 100.542 65.736 101.295C64.6345 101.994 63.9913 102.09 63.7722 102.076C63.5221 101.808 62.6162 100.634 61.2475 96.5719C60.91 95.5697 60.4417 94.5385 59.9889 93.5412C58.9907 91.3428 57.9587 89.0693 58.4608 87.5156C58.5201 87.3324 58.5787 87.1533 58.6363 86.9782C59.4383 84.5337 60.1954 82.2253 58.7929 78.8644C58.3658 77.8408 57.6859 77.0929 57.0866 76.4329C56.6987 76.0061 56.2593 75.5224 56.1915 75.244C56.109 74.9043 56.1116 74.5122 56.1147 74.0583C56.1226 72.8336 56.1348 70.9832 54.2952 69.2606C51.7016 66.8329 48.6772 67.5808 46.6756 68.0758C46.0609 68.2277 45.4801 68.3716 44.9654 68.4321C41.6729 68.8178 38.7333 67.5756 36.8982 65.0219C34.9784 62.3507 34.6997 58.7561 36.1711 55.6412C36.8834 54.134 37.9594 52.9229 39.2054 51.5214C39.4775 51.215 39.7522 50.9061 40.0269 50.5897C40.4839 50.0629 40.9869 49.3494 41.5187 48.594C42.1536 47.6928 43.3358 46.0147 43.8491 45.6955Z" fill="#FFAF39"/>
<path d="M96.0987 84.6905L94.9712 80.4403C94.7248 79.5122 93.9373 78.8283 92.9841 78.7144C92.0297 78.6028 91.1042 79.08 90.646 79.924C90.3891 80.3974 90.1578 80.899 89.9342 81.3839C89.558 82.1998 89.1689 83.0435 88.7642 83.5092C88.5368 83.7708 87.9528 84.0527 87.3884 84.3251C86.0391 84.9762 84.191 85.868 83.4851 88.1184C83.0468 89.5144 83.2104 90.6188 83.3299 91.425C83.4333 92.1242 83.4572 92.3665 83.2699 92.8062L83.2465 92.8608C82.5005 94.6114 81.1125 97.8704 83.0588 100.641C84.4474 102.618 85.9076 103.126 87.0422 103.126C87.2637 103.127 87.4732 103.108 87.6671 103.076C90.0577 102.685 91.8549 100.199 93.3235 95.2496L96.0802 85.9587C96.2028 85.5455 96.2094 85.1067 96.0987 84.6905ZM88.8303 93.9162C88.0817 96.4395 87.4193 97.6175 87.0371 98.1397C86.993 98.0834 86.9452 98.0197 86.8941 97.9468C86.4462 97.3088 87.1156 95.7375 87.5585 94.6976L87.5822 94.6428C88.2966 92.966 88.1056 91.6784 87.9666 90.7381C87.8773 90.136 87.8454 89.8772 87.9572 89.5217C88.0491 89.2294 88.5982 88.9458 89.4256 88.5464C89.7924 88.3692 90.1962 88.1745 90.6038 87.9387L88.8303 93.9162Z" fill="#FFAF39"/>
<path d="M63.288 31.8578L63.1298 31.8025C61.9094 31.375 60.5711 32.0169 60.1426 33.2383C59.7142 34.4598 60.3571 35.7969 61.5784 36.2254L61.7364 36.2807C61.993 36.3707 62.2546 36.4134 62.5122 36.4134C63.4797 36.4134 64.3853 35.8094 64.7237 34.8449C65.1522 33.6233 64.5093 32.286 63.288 31.8578Z" fill="#FFAF39"/>
</svg>
