<svg width="177" height="169" viewBox="0 0 177 169" fill="none" xmlns="http://www.w3.org/2000/svg">
<g filter="url(#filter0_d)">
<rect x="26.3594" y="56.8286" width="139.401" height="103.868" rx="1" fill="#F7E1C1"/>
<rect x="18.1592" y="47.2619" width="154.435" height="16.4002" rx="1" fill="#F7E1C1"/>
<rect x="23.626" y="30.8617" width="144.868" height="25.9669" rx="1" fill="#F7E1C1"/>
<rect x="31.8262" y="3.52811" width="127.101" height="32.8003" rx="1" fill="#F7E1C1"/>
<path d="M46.9263 68.8737H29.2506C27.8561 68.8737 26.7256 70.0042 26.7256 71.3987V96.6495C26.7256 98.0441 27.8561 99.1746 29.2506 99.1746H46.9263C48.3208 99.1746 49.4514 98.0441 49.4514 96.6495V71.3987C49.4514 70.0042 48.3208 68.8737 46.9263 68.8737ZM44.4013 94.1245H31.7757V73.9238H44.4013V94.1245Z" fill="#FFAF39"/>
<path d="M89.8531 68.8737H72.1774C70.7829 68.8737 69.6523 70.0042 69.6523 71.3987V96.6495C69.6523 98.0441 70.7829 99.1746 72.1774 99.1746H89.8531C91.2476 99.1746 92.3781 98.0441 92.3781 96.6495V71.3987C92.3781 70.0042 91.2476 68.8737 89.8531 68.8737ZM87.328 94.1245H74.7027V73.9238H87.328V94.1245Z" fill="#FFAF39"/>
<path d="M89.8531 109.275H72.1774C70.7829 109.275 69.6523 110.405 69.6523 111.8V137.051C69.6523 138.445 70.7829 139.576 72.1774 139.576H89.8531C91.2476 139.576 92.3781 138.445 92.3781 137.051V111.8C92.3781 110.406 91.2476 109.275 89.8531 109.275ZM87.328 134.526H74.7027V114.325H87.328V134.526Z" fill="#FFAF39"/>
<path d="M130.254 68.8737H112.579C111.184 68.8737 110.054 70.0042 110.054 71.3987V96.6495C110.054 98.0441 111.184 99.1746 112.579 99.1746H130.254C131.649 99.1746 132.779 98.0441 132.779 96.6495V71.3987C132.779 70.0042 131.649 68.8737 130.254 68.8737ZM127.729 94.1245H115.104V73.9238H127.729V94.1245Z" fill="#FFAF39"/>
<path d="M46.9263 109.275H29.2506C27.8561 109.275 26.7256 110.405 26.7256 111.8V137.051C26.7256 138.445 27.8561 139.576 29.2506 139.576H46.9263C48.3208 139.576 49.4514 138.445 49.4514 137.051V111.8C49.4514 110.406 48.3208 109.275 46.9263 109.275ZM44.4013 134.526H31.7757V114.325H44.4013V134.526Z" fill="#FFAF39"/>
<path d="M130.254 109.275H112.579C111.184 109.275 110.054 110.405 110.054 111.8V137.051C110.054 138.445 111.184 139.576 112.579 139.576H130.254C131.649 139.576 132.779 138.445 132.779 137.051V111.8C132.779 110.406 131.649 109.275 130.254 109.275ZM127.729 134.526H115.104V114.325H127.729V134.526Z" fill="#FFAF39"/>
<path d="M145.405 147.151V61.2982H147.93C149.324 61.2982 150.455 60.1676 150.455 58.7731V46.1479C150.455 44.7533 149.324 43.6228 147.93 43.6228H145.405V33.5226C145.405 32.1281 144.274 30.9975 142.88 30.9975H137.83V3.22134C137.83 1.82682 136.699 0.696289 135.305 0.696289H24.2007C22.8062 0.696289 21.6757 1.82682 21.6757 3.22134V30.9972H16.6256C15.231 30.9972 14.1005 32.1278 14.1005 33.5223V43.6225H11.5755C10.1809 43.6225 9.0504 44.753 9.0504 46.1476V58.7728C9.0504 60.1673 10.1809 61.2979 11.5755 61.2979H14.1005V147.151H4V152.201H16.6256H142.88H155.527V147.151H145.405V147.151ZM26.7258 5.7464H132.779V30.9972H26.7258V5.7464ZM19.1506 36.0473H24.2007H135.304H140.354V43.6225H19.1506V36.0473ZM140.354 147.151H19.1506V61.2982H140.355V147.151H140.354ZM16.6256 56.2481H14.1005V48.6729H16.6256H142.88H145.405V56.2481H142.88H16.6256Z" fill="#FFAF39"/>
<path d="M75.874 14.3855C75.4724 13.3592 74.9083 12.4728 74.1809 11.7267C73.4537 10.9806 72.5786 10.3952 71.5561 9.9711C70.5333 9.54701 69.401 9.33481 68.1586 9.33481C66.9162 9.33481 65.7818 9.54493 64.7554 9.96548C63.7291 10.386 62.8504 10.9711 62.1194 11.7211C61.3884 12.471 60.8222 13.3591 60.4206 14.3858C60.019 15.4122 59.8184 16.5276 59.8184 17.7321C59.8184 18.9366 60.019 20.0521 60.4206 21.0784C60.8222 22.1048 61.3884 22.9929 62.1194 23.7432C62.8504 24.4931 63.7291 25.0782 64.7554 25.4988C65.7818 25.9193 66.9162 26.1294 68.1586 26.1294C69.401 26.1294 70.5333 25.9193 71.5561 25.4988C72.5789 25.0785 73.4537 24.4931 74.1809 23.7432C74.908 22.9932 75.4724 22.1051 75.874 21.0784C76.2756 20.0521 76.4763 18.9366 76.4763 17.7321C76.4763 16.5273 76.2753 15.4119 75.874 14.3855ZM72.982 20.1577C72.7434 20.8736 72.4004 21.4798 71.9535 21.9758C71.5066 22.4721 70.963 22.8527 70.3228 23.1178C69.6827 23.383 68.9612 23.5156 68.1583 23.5156C67.3553 23.5156 66.6317 23.383 65.988 23.1178C65.3441 22.8527 64.7969 22.4721 64.3461 21.9758C63.8954 21.4795 63.5488 20.8736 63.3064 20.1577C63.0641 19.4418 62.9427 18.6333 62.9427 17.7318C62.9427 16.8304 63.0641 16.0218 63.3064 15.3059C63.5488 14.59 63.8954 13.9821 64.3461 13.4823C64.7969 12.9824 65.3441 12.5997 65.988 12.3346C66.632 12.0694 67.3553 11.9368 68.1583 11.9368C68.9612 11.9368 69.6827 12.0694 70.3228 12.3346C70.963 12.5997 71.5064 12.9824 71.9535 13.4823C72.4004 13.9821 72.7431 14.59 72.982 15.3059C73.2205 16.0218 73.3398 16.8304 73.3398 17.7318C73.3398 18.6333 73.2208 19.4418 72.982 20.1577Z" fill="#FFAF39"/>
<path d="M54.3184 9.51645V16.5841H46.6145V9.51645H43.5352V25.9471H46.6145V18.7658H54.3184V25.9471H57.3978V9.51645H54.3184Z" fill="#FFAF39"/>
<path d="M107.588 23.4244V9.51645H104.531V25.9471H114.167V23.4244H107.588Z" fill="#FFAF39"/>
<path d="M76.6123 9.51645V12.0276H81.5781V25.9471H84.6346V12.0276H89.5773V9.51645H76.6123Z" fill="#FFAF39"/>
<path d="M101.884 11.948V9.51645H91.5205V25.9471H101.884V23.504H94.5999V18.8567H100.338V16.5044H94.5999V11.948H101.884Z" fill="#FFAF39"/>
</g>
<defs>
<filter id="filter0_d" x="0" y="0.696289" width="176.594" height="168" filterUnits="userSpaceOnUse" color-interpolation-filters="sRGB">
<feFlood flood-opacity="0" result="BackgroundImageFix"/>
<feColorMatrix in="SourceAlpha" type="matrix" values="0 0 0 0 0 0 0 0 0 0 0 0 0 0 0 0 0 0 127 0"/>
<feOffset dy="4"/>
<feGaussianBlur stdDeviation="2"/>
<feColorMatrix type="matrix" values="0 0 0 0 0 0 0 0 0 0 0 0 0 0 0 0 0 0 0.25 0"/>
<feBlend mode="normal" in2="BackgroundImageFix" result="effect1_dropShadow"/>
<feBlend mode="normal" in="SourceGraphic" in2="effect1_dropShadow" result="shape"/>
</filter>
</defs>
</svg>
