<svg width="120" height="113" viewBox="0 0 120 113" fill="none" xmlns="http://www.w3.org/2000/svg">
<rect x="15.7913" y="39.6435" width="98.4522" height="73.3565" rx="1" fill="#F7E1C1"/>
<rect x="10" y="32.887" width="109.07" height="11.5826" rx="1" fill="#F7E1C1"/>
<rect x="13.8608" y="21.3044" width="102.313" height="18.3391" rx="1" fill="#F7E1C1"/>
<rect x="19.6521" y="2" width="89.7652" height="23.1652" rx="1" fill="#F7E1C1"/>
<path d="M30.3168 48.1503H17.8334C16.8485 48.1503 16.05 48.9487 16.05 49.9336V67.767C16.05 68.7519 16.8485 69.5503 17.8334 69.5503H30.3168C31.3017 69.5503 32.1001 68.7519 32.1001 67.767V49.9336C32.1001 48.9487 31.3017 48.1503 30.3168 48.1503ZM28.5335 65.9837H19.6167V51.7169H28.5335V65.9837Z" fill="#FFAF39"/>
<path d="M60.6335 48.1503H48.15C47.1651 48.1503 46.3667 48.9487 46.3667 49.9336V67.767C46.3667 68.7519 47.1651 69.5503 48.15 69.5503H60.6335C61.6183 69.5503 62.4168 68.7519 62.4168 67.767V49.9336C62.4168 48.9487 61.6183 48.1503 60.6335 48.1503ZM58.8501 65.9837H49.9335V51.7169H58.8501V65.9837Z" fill="#FFAF39"/>
<path d="M60.6335 76.6836H48.15C47.1651 76.6836 46.3667 77.482 46.3667 78.4669V96.3003C46.3667 97.2852 47.1651 98.0836 48.15 98.0836H60.6335C61.6183 98.0836 62.4168 97.2852 62.4168 96.3003V78.4669C62.4168 77.4822 61.6183 76.6836 60.6335 76.6836ZM58.8501 94.517H49.9335V80.2502H58.8501V94.517Z" fill="#FFAF39"/>
<path d="M89.1672 48.1503H76.6837C75.6988 48.1503 74.9004 48.9487 74.9004 49.9336V67.767C74.9004 68.7519 75.6988 69.5503 76.6837 69.5503H89.1672C90.152 69.5503 90.9505 68.7519 90.9505 67.767V49.9336C90.9505 48.9487 90.152 48.1503 89.1672 48.1503ZM87.3838 65.9837H78.4672V51.7169H87.3838V65.9837Z" fill="#FFAF39"/>
<path d="M30.3168 76.6836H17.8334C16.8485 76.6836 16.05 77.482 16.05 78.4669V96.3003C16.05 97.2852 16.8485 98.0836 17.8334 98.0836H30.3168C31.3017 98.0836 32.1001 97.2852 32.1001 96.3003V78.4669C32.1001 77.4822 31.3017 76.6836 30.3168 76.6836ZM28.5335 94.517H19.6167V80.2502H28.5335V94.517Z" fill="#FFAF39"/>
<path d="M89.1672 76.6836H76.6837C75.6988 76.6836 74.9004 77.482 74.9004 78.4669V96.3003C74.9004 97.2852 75.6988 98.0836 76.6837 98.0836H89.1672C90.152 98.0836 90.9505 97.2852 90.9505 96.3003V78.4669C90.9505 77.4822 90.152 76.6836 89.1672 76.6836ZM87.3838 94.517H78.4672V80.2502H87.3838V94.517Z" fill="#FFAF39"/>
<path d="M99.8671 103.434V42.8001H101.65C102.635 42.8001 103.434 42.0016 103.434 41.0168V32.1002C103.434 31.1153 102.635 30.3168 101.65 30.3168H99.8671V23.1836C99.8671 22.1987 99.0687 21.4002 98.0838 21.4002H94.5172V1.78332C94.5172 0.798439 93.7187 0 92.7339 0H14.2668C13.2819 0 12.4834 0.798439 12.4834 1.78332V21.4H8.91681C7.93193 21.4 7.13349 22.1985 7.13349 23.1834V30.3166H5.35017C4.36529 30.3166 3.56685 31.1151 3.56685 32.1V41.0166C3.56685 42.0014 4.36529 42.7999 5.35017 42.7999H7.13349V103.433H0V107H8.91681H98.0838H107.016V103.433H99.8671V103.434ZM16.0501 3.56664H90.9503V21.4H16.0501V3.56664ZM10.7001 24.9667H14.2668H92.7337H96.3003V30.3166H10.7001V24.9667ZM96.3003 103.434H10.7001V42.8001H96.3005V103.434H96.3003ZM8.91681 39.2334H7.13349V33.8835H8.91681H98.0838H99.8671V39.2334H98.0838H8.91681Z" fill="#FFAF39"/>
<path d="M50.7609 9.66801C50.4773 8.94314 50.0789 8.31714 49.5651 7.79021C49.0516 7.26329 48.4335 6.84985 47.7114 6.55034C46.989 6.25082 46.1893 6.10095 45.3119 6.10095C44.4344 6.10095 43.6333 6.24935 42.9084 6.54636C42.1836 6.84337 41.563 7.2566 41.0467 7.78624C40.5305 8.31589 40.1306 8.94314 39.847 9.66822C39.5633 10.3931 39.4216 11.1809 39.4216 12.0316C39.4216 12.8822 39.5633 13.67 39.847 14.3949C40.1306 15.1198 40.5305 15.747 41.0467 16.2769C41.563 16.8065 42.1836 17.2197 42.9084 17.5167C43.6333 17.8138 44.4344 17.9622 45.3119 17.9622C46.1893 17.9622 46.989 17.8138 47.7114 17.5167C48.4338 17.2199 49.0516 16.8065 49.5651 16.2769C50.0787 15.7472 50.4773 15.12 50.7609 14.3949C51.0446 13.67 51.1863 12.8822 51.1863 12.0316C51.1863 11.1807 51.0444 10.3929 50.7609 9.66801ZM48.7184 13.7446C48.55 14.2503 48.3077 14.6783 47.9921 15.0286C47.6765 15.3791 47.2925 15.6479 46.8404 15.8352C46.3883 16.0225 45.8787 16.1161 45.3117 16.1161C44.7446 16.1161 44.2336 16.0225 43.779 15.8352C43.3242 15.6479 42.9377 15.3791 42.6194 15.0286C42.301 14.6781 42.0563 14.2503 41.8851 13.7446C41.7139 13.239 41.6282 12.668 41.6282 12.0313C41.6282 11.3947 41.7139 10.8237 41.8851 10.318C42.0563 9.81244 42.301 9.38312 42.6194 9.03009C42.9377 8.67707 43.3242 8.40681 43.779 8.21953C44.2338 8.03225 44.7446 7.93862 45.3117 7.93862C45.8787 7.93862 46.3883 8.03225 46.8404 8.21953C47.2925 8.40681 47.6763 8.67707 47.9921 9.03009C48.3077 9.38312 48.5498 9.81244 48.7184 10.318C48.8869 10.8237 48.9711 11.3947 48.9711 12.0313C48.9711 12.668 48.8871 13.239 48.7184 13.7446Z" fill="#FFAF39"/>
<path d="M35.5376 6.22928V11.2208H30.0967V6.22928H27.9219V17.8334H30.0967V12.7616H35.5376V17.8334H37.7124V6.22928H35.5376Z" fill="#FFAF39"/>
<path d="M73.1589 16.0517V6.22928H71V17.8334H77.8053V16.0517H73.1589Z" fill="#FFAF39"/>
<path d="M51.2825 6.22928V8.00277H54.7895V17.8334H56.9482V8.00277H60.439V6.22928H51.2825Z" fill="#FFAF39"/>
<path d="M69.1304 7.94655V6.22928H61.8115V17.8334H69.1304V16.108H63.9863V12.8258H68.0389V11.1645H63.9863V7.94655H69.1304Z" fill="#FFAF39"/>
</svg>
