<svg width="157" height="34" viewBox="0 0 157 34" fill="none" xmlns="http://www.w3.org/2000/svg">
<path d="M78.2508 8.27063C76.7185 8.27063 75.2206 8.72579 73.9466 9.57854C72.6725 10.4313 71.6795 11.6433 71.0932 13.0614C70.5068 14.4795 70.3534 16.0399 70.6523 17.5453C70.9512 19.0508 71.6891 20.4336 72.7726 21.5189C73.8561 22.6043 75.2365 23.3434 76.7394 23.6429C78.2422 23.9423 79.8 23.7886 81.2156 23.2012C82.6313 22.6139 83.8413 21.6191 84.6926 20.3429C85.5439 19.0667 85.9982 17.5662 85.9982 16.0313C85.9982 13.973 85.182 11.9991 83.7291 10.5437C82.2761 9.08827 80.3056 8.27063 78.2508 8.27063ZM78.2508 22.2343C77.0213 22.2299 75.8207 21.8606 74.8006 21.1731C73.7805 20.4855 72.9867 19.5106 72.5195 18.3714C72.0523 17.2322 71.9326 15.9798 72.1755 14.7725C72.4185 13.5651 73.0132 12.457 73.8845 11.5881C74.7558 10.7191 75.8647 10.1284 77.071 9.89035C78.2773 9.65236 79.527 9.77783 80.6622 10.2509C81.7974 10.724 82.7671 11.5235 83.449 12.5483C84.1308 13.5732 84.4941 14.7775 84.493 16.0091C84.4916 16.8286 84.3289 17.6397 84.0144 18.3961C83.6998 19.1525 83.2395 19.8394 82.6598 20.4176C82.0801 20.9957 81.3923 21.4537 80.6358 21.7654C79.8793 22.0772 79.0688 22.2365 78.2508 22.2343Z" fill="white"/>
<path d="M134.508 17.5226H140.54C140.212 18.8601 139.451 20.0512 138.376 20.9099C137.301 21.7687 135.972 22.2468 134.597 22.2695C133.222 22.2923 131.879 21.8585 130.776 21.0359C129.673 20.2132 128.873 19.048 128.501 17.7221C128.129 16.3961 128.205 14.9841 128.719 13.7063C129.232 12.4285 130.153 11.3568 131.338 10.6586C132.523 9.96035 133.906 9.67481 135.27 9.84653C136.635 10.0182 137.904 10.6376 138.88 11.6078L139.433 12.1622L140.501 11.0867L139.948 10.5324C139.233 9.81082 138.382 9.23879 137.444 8.84957C136.506 8.46035 135.501 8.2617 134.486 8.26518C133.016 8.26107 131.576 8.67567 130.333 9.46061C129.09 10.2455 128.095 11.3685 127.465 12.6983C126.835 14.0281 126.596 15.51 126.774 16.971C126.953 18.4321 127.544 19.812 128.476 20.9498C129.408 22.0875 130.644 22.9362 132.04 23.3968C133.436 23.8574 134.933 23.9109 136.358 23.551C137.783 23.1911 139.077 22.4327 140.087 21.3643C141.098 20.2959 141.785 18.9616 142.067 17.517C142.146 17.0165 142.181 16.5102 142.172 16.0037H134.508V17.5226Z" fill="white"/>
<path d="M59.3583 21.1977L53.1714 8.45911H51.5278L58.5337 22.8884L58.7993 23.4317L58.8934 23.6202H59.1922H59.5243H59.8231L59.9172 23.4317L60.1773 22.8884L67.1831 8.45911H65.5451L59.3583 21.1977Z" fill="white"/>
<path d="M97.6359 15.6599L91.3218 8.45911H89.3572L96.8944 17.0568V23.6202H98.3719V17.0624L105.915 8.45911H103.95L97.6359 15.6599Z" fill="white"/>
<path d="M108.516 30.7766H108.2V27.6447H106.794V27.3342H109.949V27.6447H108.538L108.516 30.7766Z" fill="white"/>
<path d="M111.15 27.3342H112.373C112.525 27.3312 112.677 27.3556 112.821 27.4063C112.95 27.4515 113.067 27.5254 113.164 27.6225C113.263 27.7123 113.339 27.8244 113.385 27.9496C113.437 28.0819 113.464 28.223 113.463 28.3653C113.464 28.494 113.442 28.6218 113.396 28.7423C113.358 28.8527 113.297 28.9544 113.219 29.0416C113.141 29.1284 113.047 29.1998 112.943 29.2522C112.827 29.3091 112.704 29.3484 112.577 29.3687L113.524 30.7767H113.12L112.201 29.3797H111.465V30.7711H111.15V27.3342ZM112.943 27.8498C112.792 27.712 112.593 27.6384 112.389 27.6447H111.482V29.0693H112.389C112.59 29.0758 112.787 29.0088 112.943 28.8808C113.015 28.8165 113.071 28.7368 113.109 28.6476C113.146 28.5584 113.163 28.4619 113.158 28.3653C113.16 28.2691 113.141 28.1737 113.104 28.085C113.067 27.9963 113.012 27.9162 112.943 27.8498Z" fill="white"/>
<path d="M115.272 30.1447L114.985 30.7766H114.641L116.241 27.3342H116.589L118.189 30.7766H117.846L117.552 30.1447H115.272ZM117.386 29.8287L116.401 27.7167L115.422 29.8343L117.386 29.8287Z" fill="white"/>
<path d="M118.626 27.3342H118.974L120.391 30.2999L121.797 27.3342H122.123L120.463 30.7766H120.231L118.626 27.3342Z" fill="white"/>
<path d="M125.444 27.6447H123.706V28.8975H125.444V29.2079H123.706V30.4884H125.444V30.8044H123.391V27.3342H125.444V27.6447Z" fill="white"/>
<path d="M127.17 30.4884H128.946V30.8044H126.855V27.3342H127.17V30.4884Z" fill="white"/>
<path d="M132.776 30.1447L132.488 30.7766H132.145L133.744 27.3342H134.071L135.676 30.7766H135.327L135.034 30.1447H132.776ZM134.89 29.8287L133.905 27.7167L132.925 29.8343L134.89 29.8287Z" fill="white"/>
<path d="M136.683 28.3708C136.763 28.163 136.885 27.9742 137.043 27.8165C137.201 27.6605 137.389 27.538 137.596 27.4562C137.814 27.3678 138.047 27.3244 138.282 27.3287C138.504 27.3235 138.725 27.3651 138.93 27.4506C139.118 27.5309 139.294 27.6393 139.45 27.7721L139.306 28.0715C139.173 27.9489 139.024 27.8445 138.863 27.761C138.677 27.6775 138.475 27.6359 138.271 27.6391C138.082 27.64 137.894 27.6757 137.718 27.7444C137.552 27.8086 137.401 27.9068 137.275 28.0327C137.149 28.1615 137.049 28.3141 136.982 28.4817C136.915 28.6588 136.881 28.8467 136.882 29.036C136.882 29.2252 136.916 29.4129 136.982 29.5904C137.049 29.7562 137.149 29.907 137.275 30.0338C137.402 30.161 137.555 30.2593 137.723 30.3221C137.899 30.3932 138.087 30.429 138.277 30.4274C138.454 30.431 138.631 30.4009 138.797 30.3387C138.941 30.2807 139.074 30.1982 139.19 30.0948C139.305 29.9902 139.396 29.8615 139.455 29.7178C139.522 29.5727 139.564 29.417 139.577 29.2578H138.171V28.9418H139.937C139.94 29.1847 139.903 29.4265 139.826 29.6569C139.754 29.8597 139.645 30.0476 139.505 30.2112C139.36 30.3701 139.182 30.4966 138.985 30.5826C138.768 30.6752 138.534 30.7206 138.299 30.7157C138.06 30.7176 137.823 30.6723 137.601 30.5826C137.395 30.5008 137.207 30.3783 137.048 30.2223C136.891 30.0646 136.769 29.8758 136.688 29.668C136.598 29.4521 136.553 29.2201 136.556 28.9861C136.56 28.775 136.604 28.5665 136.683 28.3708Z" fill="white"/>
<path d="M143.296 27.6447H141.558V28.8975H143.296V29.2079H141.558V30.4884H143.296V30.8044H141.243V27.3342H143.296V27.6447Z" fill="white"/>
<path d="M147.784 30.7766H147.468L145.028 27.8387V30.7766H144.712V27.3342H145.028L147.468 30.2722V27.3342H147.784V30.7766Z" fill="white"/>
<path d="M149.328 28.3709C149.412 28.1639 149.536 27.9755 149.693 27.8165C149.851 27.6593 150.039 27.5366 150.246 27.4562C150.461 27.3689 150.69 27.3255 150.921 27.3287C151.145 27.3249 151.367 27.3664 151.574 27.4507C151.764 27.5337 151.94 27.6459 152.095 27.7833L151.962 28.0826C151.825 27.9551 151.67 27.8486 151.503 27.7667C151.318 27.6792 151.115 27.6356 150.91 27.6392C150.721 27.6393 150.533 27.6751 150.357 27.7445C150.193 27.81 150.045 27.9081 149.92 28.0327C149.795 28.1619 149.697 28.3145 149.632 28.4817C149.561 28.6578 149.525 28.8462 149.527 29.0361C149.527 29.2259 149.562 29.414 149.632 29.5904C149.697 29.756 149.795 29.9068 149.92 30.0339C150.045 30.1585 150.193 30.2566 150.357 30.3221C150.532 30.3943 150.721 30.4301 150.91 30.4275C151.008 30.4359 151.106 30.4359 151.204 30.4275C151.313 30.402 151.42 30.3687 151.525 30.3277L151.574 30.6437C151.457 30.6846 151.337 30.7161 151.215 30.7379C151.115 30.7596 151.013 30.7708 150.91 30.7712C150.68 30.7737 150.452 30.7284 150.241 30.6381C150.034 30.5563 149.846 30.4338 149.687 30.2778C149.532 30.119 149.409 29.9305 149.328 29.7235C149.238 29.5076 149.192 29.2756 149.195 29.0416C149.197 28.8117 149.242 28.5842 149.328 28.3709Z" fill="white"/>
<path d="M154.391 29.3021L153.024 27.3342H153.406L154.552 28.9972L155.697 27.3342H156.085L154.707 29.3021V30.7766H154.391V29.3021Z" fill="white"/>
<path d="M45.5734 8.45911H44.0958V23.6202H45.5734V8.45911Z" fill="white"/>
<path d="M149.3 17.5225H156.085V16.0091H149.117C149.119 14.3595 149.773 12.7778 150.937 11.6109C152.101 10.4439 153.68 9.7869 155.326 9.78396H156.085V8.27063H155.326C153.276 8.27796 151.313 9.09884 149.866 10.5535C148.419 12.0081 147.607 13.9778 147.607 16.0313C147.607 16.2974 147.607 16.5856 147.645 16.824C147.684 17.0624 147.712 17.3063 147.756 17.5446C148.114 19.2928 149.062 20.8642 150.441 21.994C151.82 23.1239 153.545 23.7432 155.326 23.7476H156.079V22.2343H155.326C153.942 22.232 152.598 21.7674 151.506 20.9141C150.415 20.0607 149.638 18.8673 149.3 17.5225Z" fill="white"/>
<path d="M120.38 19.3462L115.449 9.19637L115.09 8.45911H114.16L113.823 9.19637L108.87 19.3462L108.593 19.9006L106.794 23.6035H108.455L109.81 20.8319H119.473L120.828 23.6035H122.489L120.69 19.9006L120.38 19.3462ZM110.502 19.3462L114.614 10.8871L118.725 19.3462H110.502Z" fill="white"/>
<path d="M33.8084 16.8961C33.8084 16.691 33.8084 16.4859 33.8084 16.2808C33.8084 16.0924 33.8084 15.8983 33.7697 15.6932H25.4855L30.8146 26.5471C31.1134 26.1147 31.368 25.6657 31.6447 25.2056C31.8107 24.9118 31.9712 24.6069 32.115 24.3076C32.1302 24.281 32.1432 24.2532 32.1538 24.2244C32.2866 23.9473 32.4139 23.6701 32.5356 23.3819L32.6131 23.1823C32.7127 22.9384 32.8068 22.6889 32.8898 22.445L33.0171 22.0681C33.0779 21.8796 33.1333 21.6911 33.1886 21.5137C33.2439 21.3364 33.2938 21.1313 33.338 20.9594C33.3823 20.7876 33.3989 20.7044 33.4266 20.5769C33.4819 20.3219 33.5372 20.0614 33.5815 19.8009C33.5815 19.7399 33.5815 19.6789 33.6092 19.6179C33.659 19.302 33.7033 18.986 33.7365 18.6645C33.7641 18.4039 33.7863 18.1101 33.7973 17.8718C33.7973 17.8385 33.7973 17.8108 33.7973 17.7775C33.7973 17.5059 33.7973 17.2232 33.7973 16.9738L33.8084 16.8961Z" fill="#EAAC44"/>
<path d="M23.128 23.0825L17.5333 16.6799V33.8643H17.7491H17.9317L18.2637 33.8366C22.103 33.5217 25.7202 31.9045 28.518 29.2522L23.128 23.0825Z" fill="#EAAC44"/>
<path d="M7.01894 15.6433H0.0407396C0.0407396 15.8484 0.0407397 16.0424 0.00200273 16.2309C0.00200273 16.4378 0.00200273 16.6429 0.00200273 16.8462V16.8961C0.00200273 17.1622 0.00200273 17.4504 0.00200273 17.6999C-0.000667577 17.7312 -0.000667577 17.7627 0.00200273 17.7941C0.00200273 18.0602 0.0352062 18.3484 0.0628755 18.5868C0.0960787 18.9083 0.140351 19.2298 0.190156 19.5458C0.190156 19.6068 0.190156 19.6677 0.190156 19.7287C0.234427 19.9893 0.284231 20.2442 0.345104 20.5048L0.428108 20.8762C0.477913 21.0758 0.527721 21.2698 0.58306 21.4582C0.638398 21.6467 0.693734 21.8352 0.749073 22.0126L0.881888 22.3951C0.963052 22.639 1.05159 22.8773 1.14751 23.1102C1.17518 23.1878 1.20839 23.2598 1.23606 23.3374C1.35042 23.6072 1.47216 23.8788 1.60129 24.1523L1.65663 24.2632C1.79497 24.5514 1.94992 24.8175 2.1104 25.1279V25.1667C2.36496 25.6157 2.66379 26.0592 2.92941 26.4861L8.22532 15.5934L7.01894 15.6433Z" fill="#EAAC44"/>
<path d="M20.5216 5.40479L24.8933 14.4127H33.6202C33.2476 11.9812 32.3506 9.66011 30.9916 7.61104L30.7979 7.30616C29.434 5.32041 27.6617 3.64999 25.6 2.40704C23.5383 1.1641 21.2351 0.377418 18.8448 0.0998169H18.7286C18.5349 0.0998169 18.3357 0.0610134 18.1365 0.0499268H17.9041L20.5216 5.40479Z" fill="#EAAC44"/>
<path d="M13.156 5.60986L15.8732 0H15.6463L15.0486 0.0498902H14.9269C11.0083 0.50567 7.37361 2.32418 4.65602 5.18857C4.05146 5.82314 3.49644 6.50327 2.99586 7.22297V7.25624L2.90731 7.39482C1.48129 9.49866 0.546905 11.8974 0.173584 14.4127H8.88389L13.156 5.60986Z" fill="#EAAC44"/>
<path d="M14.39 5.91478L10.2618 14.4016H16.266V5.91478V5.62099V2.04553L14.39 5.91478Z" fill="#EAAC44"/>
<path d="M25.4302 18.3485L24.1186 15.6433H18.2527L23.7147 21.874L29.3758 28.3265C29.575 28.1103 29.7632 27.8886 29.9292 27.6668L25.4302 18.3485Z" fill="#EAAC44"/>
<path d="M19.3871 5.91471L17.5056 2.03992V5.53777V5.91471V14.4016H23.5154L19.3871 5.91471Z" fill="#EAAC44"/>
<path d="M5.27026 29.2079C8.0564 31.8678 11.6669 33.4932 15.5024 33.8144H15.8731H16.089H16.266V16.63L5.2758 29.1968L5.27026 29.2079Z" fill="#EAAC44"/>
<path d="M9.65861 15.6433L3.82593 27.6502C4.00855 27.8719 4.20223 28.0936 4.37931 28.3098L15.5079 15.6433H9.65861Z" fill="#EAAC44"/>
</svg>
