<svg width="250" height="153" viewBox="0 0 250 153" fill="none" xmlns="http://www.w3.org/2000/svg">
<path d="M62.5547 151.925H61.8574V144.988H58.7441V144.291H65.6804V144.988H62.5547V151.925Z" fill="black" stroke="black" stroke-width="0.5" stroke-miterlimit="10"/>
<path d="M69.6406 144.328H72.3553C72.6953 144.325 73.0329 144.384 73.3516 144.503C73.6377 144.608 73.9001 144.769 74.1237 144.976C74.3275 145.183 74.4883 145.429 74.5969 145.698C74.8034 146.265 74.8034 146.887 74.5969 147.454C74.5044 147.7 74.3696 147.927 74.1984 148.126C74.0241 148.321 73.8123 148.477 73.5757 148.587C73.3251 148.715 73.0563 148.803 72.7787 148.849L74.8708 151.962H73.9867L71.9444 148.874H70.338V151.925H69.6406V144.328ZM73.6255 145.486C73.4589 145.331 73.263 145.21 73.0492 145.131C72.8354 145.052 72.608 145.016 72.3803 145.026H70.338V148.189H72.3553C72.8069 148.21 73.2505 148.064 73.6006 147.778C73.7589 147.633 73.8834 147.456 73.9651 147.258C74.0469 147.06 74.0841 146.846 74.0738 146.632C74.0824 146.421 74.0469 146.21 73.9698 146.012C73.8926 145.815 73.7754 145.636 73.6255 145.486Z" fill="black" stroke="black" stroke-width="0.5" stroke-miterlimit="10"/>
<path d="M80.0754 150.567L79.3905 151.925H78.6309L82.1799 144.291H82.9146L86.4637 151.925H85.6916L85.0565 150.567H80.0754ZM84.7577 149.87L82.566 145.175L80.3867 149.87H84.7577Z" fill="black" stroke="black" stroke-width="0.5" stroke-miterlimit="10"/>
<path d="M88.7173 144.329H89.5018L92.6275 150.916L95.7531 144.329H96.5252L92.889 151.925H92.366L88.7173 144.329Z" fill="black" stroke="black" stroke-width="0.5" stroke-miterlimit="10"/>
<path d="M105.043 145.026H101.245V147.803H105.105V148.5H101.245V151.265H105.105V151.925H100.485V144.329H105.043V145.026Z" fill="black" stroke="black" stroke-width="0.5" stroke-miterlimit="10"/>
<path d="M110.174 151.265H114.109V151.925H109.477V144.329H110.174V151.265Z" fill="black" stroke="black" stroke-width="0.5" stroke-miterlimit="10"/>
<path d="M122.602 150.567L121.967 151.925H121.17L124.732 144.291H125.454L129.003 151.925H128.231L127.596 150.53L122.602 150.567ZM127.285 149.87L125.106 145.175L122.926 149.87H127.285Z" fill="black" stroke="black" stroke-width="0.5" stroke-miterlimit="10"/>
<path d="M132.514 146.632C132.692 146.167 132.963 145.743 133.311 145.387C133.666 145.037 134.09 144.766 134.556 144.59C135.037 144.387 135.554 144.285 136.076 144.291C136.571 144.286 137.062 144.379 137.52 144.565C137.934 144.75 138.32 144.994 138.666 145.287L138.342 145.947C138.051 145.671 137.719 145.44 137.358 145.262C136.968 145.082 136.543 144.989 136.113 144.988C135.687 144.988 135.264 145.068 134.868 145.225C134.496 145.367 134.159 145.586 133.878 145.867C133.597 146.148 133.378 146.485 133.236 146.856C133.084 147.254 133.008 147.676 133.012 148.102C133.01 148.527 133.086 148.949 133.236 149.347C133.379 149.718 133.6 150.053 133.884 150.331C134.163 150.61 134.499 150.826 134.868 150.966C135.263 151.126 135.686 151.206 136.113 151.202C136.5 151.209 136.885 151.142 137.246 151.003C137.576 150.885 137.877 150.698 138.13 150.455C138.384 150.225 138.587 149.946 138.728 149.633C138.867 149.309 138.956 148.964 138.99 148.612H135.851V147.915H139.774C139.785 148.453 139.7 148.988 139.525 149.496C139.375 149.955 139.134 150.379 138.815 150.742C138.494 151.092 138.104 151.371 137.67 151.564C137.183 151.795 136.652 151.918 136.113 151.925C135.585 151.928 135.061 151.831 134.569 151.638C134.102 151.458 133.678 151.182 133.324 150.829C132.976 150.473 132.704 150.049 132.527 149.584C132.144 148.611 132.144 147.53 132.527 146.558L132.514 146.632Z" fill="black" stroke="black" stroke-width="0.5" stroke-miterlimit="10"/>
<path d="M148.429 145.026H144.581V147.803H148.429V148.5H144.581V151.265H148.429V151.925H143.884V144.329H148.429V145.026Z" fill="black" stroke="black" stroke-width="0.5" stroke-miterlimit="10"/>
<path d="M159.636 151.925H158.939L153.547 145.462V151.925H152.85V144.329H153.547L158.964 150.854V144.329H159.661L159.636 151.925Z" fill="black" stroke="black" stroke-width="0.5" stroke-miterlimit="10"/>
<path d="M164.307 146.632C164.49 146.167 164.766 145.744 165.116 145.387C165.47 145.036 165.894 144.765 166.361 144.59C166.834 144.389 167.342 144.287 167.856 144.291C168.352 144.286 168.843 144.383 169.3 144.577C169.723 144.76 170.114 145.008 170.458 145.312L170.159 145.972C169.861 145.69 169.52 145.455 169.151 145.275C168.738 145.079 168.287 144.981 167.831 144.988C167.404 144.985 166.981 145.066 166.585 145.225C166.216 145.365 165.881 145.581 165.602 145.86C165.023 146.494 164.719 147.331 164.755 148.189C164.751 148.615 164.831 149.039 164.991 149.434C165.139 149.799 165.355 150.133 165.627 150.418C165.906 150.697 166.241 150.913 166.61 151.053C167.004 151.218 167.429 151.299 167.856 151.29C168.075 151.308 168.296 151.308 168.516 151.29C168.753 151.232 168.986 151.157 169.213 151.065L169.337 151.763C169.072 151.851 168.801 151.926 168.528 151.987C168.304 152.004 168.079 152.004 167.856 151.987C167.348 151.991 166.844 151.893 166.374 151.701C165.47 151.316 164.754 150.591 164.381 149.683C164.178 149.207 164.077 148.694 164.082 148.176C164.056 147.652 164.132 147.127 164.307 146.632Z" fill="black" stroke="black" stroke-width="0.5" stroke-miterlimit="10"/>
<path d="M176.798 148.7L173.747 144.329H174.606L177.096 147.99L179.587 144.329H180.446L177.395 148.7V151.925H176.71L176.798 148.7Z" fill="black" stroke="black" stroke-width="0.5" stroke-miterlimit="10"/>
<path d="M76.7753 87.9297C73.3833 87.9272 70.0667 88.9308 67.2452 90.8135C64.4237 92.6962 62.2239 95.3734 60.9241 98.5065C59.6243 101.64 59.283 105.088 59.9432 108.415C60.6034 111.742 62.2356 114.799 64.6332 117.198C67.0309 119.597 70.0863 121.232 73.4129 121.894C76.7395 122.557 80.188 122.218 83.322 120.921C86.4561 119.623 89.1349 117.425 91.0196 114.605C92.9044 111.785 93.9104 108.469 93.9104 105.077C93.9071 100.533 92.1011 96.1749 88.8887 92.9601C85.6764 89.7454 81.3199 87.9363 76.7753 87.9297ZM76.7753 118.863C74.0458 118.863 71.3776 118.053 69.1083 116.536C66.8391 115.02 65.0706 112.864 64.0266 110.342C62.9827 107.82 62.7101 105.045 63.2435 102.368C63.7769 99.6916 65.0923 97.2331 67.0232 95.3039C68.9541 93.3748 71.4138 92.0616 74.0911 91.5307C76.7684 90.9997 79.5431 91.2747 82.0641 92.3209C84.5851 93.3671 86.7391 95.1376 88.2537 97.4082C89.7683 99.6789 90.5755 102.348 90.573 105.077C90.5664 108.733 89.1102 112.238 86.5237 114.822C83.9372 117.406 80.4315 118.859 76.7753 118.863Z" fill="black" stroke="black" stroke-miterlimit="10"/>
<path d="M201.591 108.427H214.965C214.228 111.387 212.532 114.021 210.141 115.915C207.75 117.81 204.799 118.86 201.749 118.901C198.698 118.942 195.72 117.972 193.279 116.142C190.838 114.312 189.072 111.725 188.256 108.786C187.44 105.846 187.621 102.719 188.769 99.8929C189.918 97.0666 191.97 94.7002 194.605 93.1631C197.24 91.6259 200.31 91.0045 203.335 91.396C206.361 91.7874 209.171 93.1695 211.329 95.3267L212.512 96.572L214.878 94.2059L213.695 93.0229C210.993 90.3232 207.466 88.6038 203.675 88.1377C199.884 87.6716 196.046 88.4856 192.77 90.4503C189.494 92.415 186.969 95.4179 185.595 98.9819C184.222 102.546 184.078 106.467 185.187 110.122C186.297 113.777 188.596 116.956 191.719 119.155C194.842 121.354 198.61 122.447 202.425 122.259C206.24 122.072 209.883 120.615 212.776 118.12C215.668 115.625 217.644 112.236 218.389 108.489C218.566 107.382 218.645 106.261 218.626 105.14H201.591V108.427Z" fill="black" stroke="black" stroke-miterlimit="10"/>
<path d="M34.8595 116.558L21.1365 88.3528H17.4878L33.0414 120.307L33.6267 121.515L33.8259 121.938H34.4859H35.2331H35.8931L36.0923 121.515L36.6776 120.307L52.2312 88.3528H48.5826L34.8595 116.558Z" fill="black" stroke="black" stroke-miterlimit="10"/>
<path d="M119.788 104.305L105.778 88.3528H101.42L118.132 107.393V121.938H121.419V107.418L138.156 88.3528H133.797L119.788 104.305Z" fill="black" stroke="black" stroke-miterlimit="10"/>
<path d="M4.2751 88.3528H1V121.926H4.2751V88.3528Z" fill="black" stroke="black" stroke-miterlimit="10"/>
<path d="M234.404 108.427H249.435V105.077H233.993C234 101.422 235.454 97.9182 238.037 95.3324C240.621 92.7466 244.123 91.2894 247.778 91.2795H249.435V87.9297H247.766C243.222 87.933 238.866 89.7393 235.653 92.9521C232.441 96.1648 230.634 100.521 230.631 105.065C230.632 105.651 230.665 106.238 230.73 106.821C230.73 107.356 230.867 107.892 230.967 108.415C231.744 112.299 233.842 115.795 236.904 118.308C239.966 120.821 243.804 122.196 247.766 122.2H249.435V118.863H247.766C244.696 118.856 241.715 117.826 239.295 115.937C236.875 114.047 235.154 111.404 234.404 108.427Z" fill="black" stroke="black" stroke-miterlimit="10"/>
<path d="M170.247 112.474L159.301 89.9842L158.529 88.4152H156.461L155.664 90.0465L144.706 112.474L144.096 113.719L140.111 121.926H143.747L146.761 115.699H168.192L171.206 121.926H174.842L170.857 113.719L170.247 112.474ZM148.355 112.474L157.483 93.7201L166.598 112.474H148.355Z" fill="black" stroke="black" stroke-miterlimit="10"/>
<path d="M86.302 31.132C86.302 31.9165 86.2149 32.701 86.2149 33.498C86.2056 40.4175 88.3418 47.1697 92.3292 52.8248L102.74 31.132H86.302Z" fill="#FFAF39"/>
<path d="M117.758 0C109.979 0.473837 102.606 3.63524 96.9 8.94365C91.1941 14.2521 87.5094 21.3778 86.4761 29.1023H103.736L117.758 0Z" fill="#FFAF39"/>
<path d="M105.044 31.132L93.6992 54.7924C94.0977 55.2905 94.5087 55.7637 94.9445 56.2369L117.434 31.132H105.044Z" fill="#FFAF39"/>
<path d="M96.3887 57.6565C102.405 63.5189 110.407 66.9021 118.804 67.1332V32.8505L96.3887 57.6565Z" fill="#FFAF39"/>
<path d="M118.741 2.75232L106.052 29.1025H118.741V2.75232Z" fill="#FFAF39"/>
<path d="M153.099 29.1023C152.065 21.3758 148.379 14.2485 142.67 8.93987C136.962 3.63121 129.586 0.471049 121.805 0L135.827 29.1023H153.099Z" fill="#FFAF39"/>
<path d="M133.523 29.1025L120.821 2.75232V29.1025H133.523Z" fill="#FFAF39"/>
<path d="M147.321 52.8746C151.318 47.2236 153.459 40.4696 153.448 33.5478C153.448 32.7508 153.448 31.9663 153.348 31.1818H136.823L147.321 52.8746Z" fill="#FFAF39"/>
<path d="M120.821 67.1332C129.217 66.8984 137.218 63.5158 143.236 57.6565L120.821 32.8505V67.1332Z" fill="#FFAF39"/>
<path d="M122.117 31.132L144.644 56.1248C145.067 55.6516 145.466 55.1784 145.889 54.6803L134.52 31.132H122.117Z" fill="#FFAF39"/>
</svg>
