<svg width="134" height="82" viewBox="0 0 134 82" fill="none" xmlns="http://www.w3.org/2000/svg">
<path d="M33.8019 80.9599H33.4303V77.2636H31.7712V76.892H35.4675V77.2636H33.8019V80.9599Z" fill="white" stroke="white" stroke-width="0.5" stroke-miterlimit="10"/>
<path d="M37.5779 76.9118H39.0245C39.2057 76.9102 39.3856 76.9417 39.5554 77.0047C39.7079 77.0607 39.8478 77.1464 39.9669 77.2569C40.0755 77.3673 40.1612 77.4981 40.219 77.6418C40.3291 77.944 40.3291 78.2753 40.219 78.5775C40.1698 78.7084 40.0979 78.8297 40.0067 78.9358C39.9138 79.0392 39.8009 79.1228 39.6749 79.1813C39.5413 79.2494 39.3981 79.2964 39.2502 79.3207L40.365 80.9797H39.8939L38.8056 79.334H37.9495V80.9598H37.5779V76.9118ZM39.7014 77.529C39.6126 77.4461 39.5082 77.3817 39.3943 77.3395C39.2804 77.2974 39.1592 77.2783 39.0378 77.2834H37.9495V78.969H39.0245C39.2652 78.9804 39.5016 78.9024 39.6881 78.75C39.7725 78.673 39.8388 78.5784 39.8824 78.4729C39.926 78.3674 39.9458 78.2535 39.9403 78.1395C39.9449 78.0267 39.926 77.9143 39.8849 77.8092C39.8437 77.7041 39.7813 77.6087 39.7014 77.529Z" fill="white" stroke="white" stroke-width="0.5" stroke-miterlimit="10"/>
<path d="M43.1389 80.2365L42.7739 80.9599H42.3691L44.2604 76.892H44.6519L46.5432 80.9599H46.1318L45.7933 80.2365H43.1389ZM45.6341 79.8649L44.4661 77.3631L43.3048 79.8649H45.6341Z" fill="white" stroke="white" stroke-width="0.5" stroke-miterlimit="10"/>
<path d="M47.7444 76.912H48.1625L49.8281 80.4225L51.4938 76.912H51.9052L49.9675 80.96H49.6888L47.7444 76.912Z" fill="white" stroke="white" stroke-width="0.5" stroke-miterlimit="10"/>
<path d="M56.4442 77.2836H54.4202V78.7634H56.4774V79.1351H54.4202V80.6083H56.4774V80.96H54.0154V76.912H56.4442V77.2836Z" fill="white" stroke="white" stroke-width="0.5" stroke-miterlimit="10"/>
<path d="M59.1783 80.6083H61.2753V80.96H58.8066V76.912H59.1783V80.6083Z" fill="white" stroke="white" stroke-width="0.5" stroke-miterlimit="10"/>
<path d="M65.8012 80.2365L65.4628 80.9599H65.0381L66.936 76.892H67.3209L69.2122 80.9599H68.8007L68.4623 80.2166L65.8012 80.2365ZM68.2964 79.8649L67.1351 77.3631L65.9738 79.8649H68.2964Z" fill="white" stroke="white" stroke-width="0.5" stroke-miterlimit="10"/>
<path d="M71.0835 78.1395C71.1783 77.8917 71.3228 77.6658 71.5082 77.4759C71.6973 77.2897 71.9234 77.145 72.1718 77.0512C72.4278 76.9431 72.7034 76.8889 72.9814 76.892C73.2451 76.8892 73.5068 76.9388 73.7511 77.038C73.9718 77.1367 74.1774 77.2663 74.3617 77.4229L74.1891 77.7746C74.0338 77.6271 73.8571 77.504 73.6649 77.4096C73.4568 77.3135 73.2304 77.2637 73.0013 77.2636C72.7741 77.2632 72.5489 77.306 72.3377 77.3897C72.1398 77.4653 71.9601 77.5818 71.8103 77.7316C71.6605 77.8814 71.544 78.0611 71.4683 78.259C71.387 78.4707 71.3465 78.6958 71.3489 78.9226C71.3478 79.1492 71.3882 79.3742 71.4683 79.5862C71.5444 79.7837 71.6621 79.9625 71.8134 80.1105C71.9623 80.2591 72.1409 80.3744 72.3377 80.4489C72.5485 80.5341 72.7739 80.5769 73.0013 80.575C73.2075 80.5787 73.4126 80.5427 73.6052 80.4688C73.781 80.4057 73.9416 80.3062 74.0763 80.1768C74.2115 80.0543 74.3199 79.9052 74.3948 79.7388C74.4691 79.5657 74.5161 79.3822 74.5342 79.1947H72.8619V78.8231H74.9523C74.9578 79.1096 74.9129 79.3949 74.8196 79.6658C74.7397 79.9104 74.6111 80.1362 74.4413 80.3294C74.2701 80.5159 74.0623 80.665 73.8308 80.7674C73.5714 80.8906 73.2884 80.9563 73.0013 80.9599C72.7198 80.9617 72.4405 80.9099 72.1784 80.8072C71.9297 80.711 71.7037 80.5641 71.5148 80.3759C71.3294 80.186 71.1849 79.9602 71.0901 79.7123C70.8863 79.1941 70.8863 78.6179 71.0901 78.0997L71.0835 78.1395Z" fill="white" stroke="white" stroke-width="0.5" stroke-miterlimit="10"/>
<path d="M79.5643 77.2836H77.5137V78.7634H79.5643V79.1351H77.5137V80.6083H79.5643V80.96H77.1421V76.912H79.5643V77.2836Z" fill="white" stroke="white" stroke-width="0.5" stroke-miterlimit="10"/>
<path d="M85.5368 80.96H85.1652L82.2918 77.5159V80.96H81.9202V76.912H82.2918L85.1785 80.3893V76.912H85.5501L85.5368 80.96Z" fill="white" stroke="white" stroke-width="0.5" stroke-miterlimit="10"/>
<path d="M88.0253 78.1395C88.1232 77.8917 88.2699 77.666 88.4567 77.4759C88.6453 77.289 88.8715 77.1443 89.1203 77.0512C89.3719 76.944 89.643 76.8898 89.9166 76.8919C90.181 76.8892 90.443 76.9412 90.6864 77.0446C90.9115 77.1416 91.1198 77.2738 91.3035 77.4361L91.1443 77.7878C90.985 77.6374 90.8037 77.512 90.6067 77.4162C90.3871 77.3121 90.1464 77.2599 89.9033 77.2636C89.676 77.262 89.4506 77.3048 89.2397 77.3897C89.043 77.4641 88.8643 77.5795 88.7155 77.7281C88.4071 78.0659 88.2449 78.512 88.2642 78.969C88.2619 79.1964 88.3048 79.422 88.3903 79.6326C88.4689 79.8272 88.5838 80.0051 88.7287 80.1569C88.8776 80.3055 89.0563 80.4209 89.253 80.4953C89.4629 80.5833 89.689 80.6263 89.9166 80.6214C90.0336 80.6312 90.1513 80.6312 90.2683 80.6214C90.3949 80.5908 90.5191 80.5508 90.6399 80.502L90.7063 80.8736C90.5646 80.9206 90.4206 80.9605 90.2749 80.993C90.1557 81.0023 90.0359 81.0023 89.9166 80.993C89.6459 80.995 89.3774 80.9431 89.1269 80.8404C88.6455 80.6355 88.264 80.2493 88.0651 79.7654C87.957 79.5116 87.9028 79.2382 87.9059 78.9624C87.8916 78.6829 87.9322 78.4034 88.0253 78.1395Z" fill="white" stroke="white" stroke-width="0.5" stroke-miterlimit="10"/>
<path d="M94.6813 79.2412L93.0554 76.912H93.5133L94.8405 78.863L96.1677 76.912H96.6256L94.9998 79.2412V80.96H94.6348L94.6813 79.2412Z" fill="white" stroke="white" stroke-width="0.5" stroke-miterlimit="10"/>
<path d="M41.3803 46.8573C39.5728 46.856 37.8054 47.3908 36.3018 48.3941C34.7982 49.3974 33.626 50.824 32.9333 52.4936C32.2407 54.1633 32.0588 56.0008 32.4106 57.7738C32.7625 59.5468 33.6322 61.1756 34.9099 62.4542C36.1876 63.7329 37.8158 64.6038 39.5885 64.9569C41.3613 65.3101 43.199 65.1295 44.8691 64.4381C46.5392 63.7466 47.9667 62.5754 48.9711 61.0726C49.9755 59.5697 50.5115 57.8027 50.5115 55.9952C50.5098 53.5733 49.5474 51.2511 47.8355 49.538C46.1237 47.8249 43.8021 46.8608 41.3803 46.8573ZM41.3803 63.3413C39.9258 63.3413 38.504 62.9099 37.2947 62.1016C36.0854 61.2934 35.143 60.1447 34.5866 58.8008C34.0303 57.4568 33.8851 55.9781 34.1693 54.5516C34.4536 53.1251 35.1545 51.815 36.1835 50.787C37.2125 49.759 38.5232 49.0592 39.95 48.7762C41.3767 48.4933 42.8553 48.6398 44.1987 49.1974C45.5421 49.7549 46.69 50.6983 47.4971 51.9084C48.3043 53.1184 48.7344 54.5406 48.7331 55.9952C48.7296 57.9435 47.9536 59.811 46.5752 61.1881C45.1969 62.5652 43.3287 63.3395 41.3803 63.3413Z" fill="white" stroke="white" stroke-miterlimit="10"/>
<path d="M107.894 57.7802H115.021C114.628 59.3578 113.724 60.761 112.45 61.7707C111.176 62.7805 109.604 63.3399 107.978 63.3617C106.353 63.3836 104.766 62.8665 103.465 61.8914C102.164 60.9162 101.223 59.5378 100.788 57.9713C100.353 56.4049 100.449 54.7385 101.061 53.2324C101.673 51.7263 102.767 50.4653 104.171 49.6461C105.575 48.827 107.211 48.4959 108.824 48.7044C110.436 48.913 111.934 49.6496 113.083 50.7991L113.714 51.4627L114.974 50.2019L114.344 49.5714C112.904 48.1328 111.025 47.2165 109.004 46.9682C106.984 46.7198 104.939 47.1535 103.193 48.2005C101.448 49.2475 100.102 50.8477 99.3701 52.747C98.638 54.6462 98.5615 56.7356 99.1527 58.6834C99.7439 60.6311 100.969 62.3254 102.633 63.4973C104.298 64.6691 106.306 65.2513 108.339 65.1513C110.372 65.0514 112.313 64.275 113.854 62.9455C115.396 61.6161 116.449 59.8097 116.846 57.8134C116.94 57.2232 116.982 56.6259 116.972 56.0283H107.894V57.7802Z" fill="white" stroke="white" stroke-miterlimit="10"/>
<path d="M19.0434 62.1134L11.7305 47.0828H9.78613L18.0746 64.1109L18.3865 64.7546L18.4926 64.9802H18.8443H19.2425H19.5942L19.7004 64.7546L20.0123 64.1109L28.3007 47.0828H26.3564L19.0434 62.1134Z" fill="white" stroke="white" stroke-miterlimit="10"/>
<path d="M64.3014 55.5836L56.8358 47.0828H54.5132L63.4188 57.2293V64.9802H65.1707V57.2426L74.0896 47.0828H71.7669L64.3014 55.5836Z" fill="white" stroke="white" stroke-miterlimit="10"/>
<path d="M2.74528 47.0828H1V64.9736H2.74528V47.0828Z" fill="white" stroke="white" stroke-miterlimit="10"/>
<path d="M125.38 57.7802H133.389V55.9951H125.161C125.164 54.0473 125.939 52.1801 127.316 50.8022C128.692 49.4242 130.559 48.6477 132.507 48.6424H133.389V46.8573H132.5C130.079 46.8591 127.757 47.8217 126.045 49.5337C124.333 51.2458 123.371 53.5673 123.369 55.9885C123.37 56.3011 123.387 56.6135 123.422 56.9242C123.422 57.2095 123.495 57.4949 123.548 57.7736C123.962 59.8437 125.08 61.7066 126.712 63.0458C128.344 64.385 130.389 65.1178 132.5 65.1197H133.389V63.3413H132.5C130.864 63.3378 129.276 62.7891 127.986 61.782C126.697 60.7749 125.779 59.3668 125.38 57.7802Z" fill="white" stroke="white" stroke-miterlimit="10"/>
<path d="M91.1906 59.9368L85.3575 47.9521L84.9461 47.116H83.8445L83.4198 47.9853L77.5801 59.9368L77.2549 60.6004L75.1313 64.9736H77.0691L78.675 61.6556H90.0957L91.7016 64.9736H93.6393L91.5158 60.6004L91.1906 59.9368ZM79.5244 59.9368L84.3887 49.9429L89.2462 59.9368H79.5244Z" fill="white" stroke="white" stroke-miterlimit="10"/>
<path d="M46.4571 16.5901C46.4571 17.0082 46.4107 17.4262 46.4107 17.8509C46.4057 21.5383 47.5441 25.1365 49.669 28.1501L55.2167 16.5901H46.4571Z" fill="#FFAF39"/>
<path d="M63.2196 0C59.0742 0.252505 55.1453 1.9372 52.1047 4.76602C49.064 7.59485 47.1005 11.3921 46.5498 15.5085H55.7474L63.2196 0Z" fill="#FFAF39"/>
<path d="M56.4441 16.5901L50.3987 29.1986C50.611 29.464 50.83 29.7162 51.0623 29.9684L63.047 16.5901H56.4441Z" fill="#FFAF39"/>
<path d="M51.832 30.7249C55.038 33.8489 59.3023 35.6518 63.7769 35.7749V17.5059L51.832 30.7249Z" fill="#FFAF39"/>
<path d="M63.7438 1.46667L56.9817 15.5086H63.7438V1.46667Z" fill="#FFAF39"/>
<path d="M82.0529 15.5085C81.502 11.391 79.5375 7.59296 76.4955 4.76401C73.4535 1.93505 69.523 0.25102 65.3765 0L72.8487 15.5085H82.0529Z" fill="#FFAF39"/>
<path d="M71.6208 15.5086L64.8521 1.46667V15.5086H71.6208Z" fill="#FFAF39"/>
<path d="M78.9738 28.1766C81.1038 25.1652 82.2448 21.566 82.2388 17.8774C82.2388 17.4527 82.2388 17.0346 82.1857 16.6166H73.3796L78.9738 28.1766Z" fill="#FFAF39"/>
<path d="M64.8521 35.7749C69.3263 35.6498 73.5899 33.8473 76.797 30.7249L64.8521 17.5059V35.7749Z" fill="#FFAF39"/>
<path d="M65.5425 16.5901L77.5471 29.9087C77.7727 29.6565 77.9851 29.4043 78.2107 29.1389L72.152 16.5901H65.5425Z" fill="#FFAF39"/>
</svg>
