<svg width="60" height="78" viewBox="0 0 60 78" fill="none" xmlns="http://www.w3.org/2000/svg">
<path d="M59.9761 29.988C59.9761 54.0004 32.8681 76.2392 32.8681 76.2392C31.2841 77.5387 28.6919 77.5387 27.108 76.2392C27.108 76.2392 0 54.0004 0 29.988C0.000301617 13.426 13.4263 0 29.9881 0C46.5499 0 59.9761 13.426 59.9761 29.988Z" fill="#0F384C"/>
<path d="M29.9884 45.0752C21.6692 45.0752 14.9014 38.3071 14.9014 29.9882C14.9014 21.6693 21.6695 14.9009 29.9884 14.9009C38.3073 14.9009 45.0754 21.669 45.0754 29.9879C45.0754 38.3068 38.3076 45.0752 29.9884 45.0752Z" fill="#FFAF39"/>
</svg>
