<svg width="22" height="29" viewBox="0 0 22 29" fill="none" xmlns="http://www.w3.org/2000/svg">
<path d="M12.4415 3.14233C7.38654 3.14233 3.27405 7.25483 3.27405 12.3097C3.27405 18.5831 11.478 27.7926 11.8273 28.1816C12.1554 28.547 12.7282 28.5464 13.0557 28.1816C13.405 27.7926 21.609 18.5831 21.609 12.3097C21.6089 7.25483 17.4964 3.14233 12.4415 3.14233ZM12.4415 16.9221C9.89823 16.9221 7.82918 14.853 7.82918 12.3097C7.82918 9.76647 9.89828 7.69741 12.4415 7.69741C14.9847 7.69741 17.0538 9.76652 17.0538 12.3098C17.0538 14.8531 14.9847 16.9221 12.4415 16.9221Z" fill="#B0C6D4"/>
<path d="M10.1497 0C4.55312 0 0 4.55312 0 10.1496C0 17.0951 9.08298 27.2914 9.46969 27.7221C9.83293 28.1266 10.4671 28.1259 10.8297 27.7221C11.2164 27.2914 20.2994 17.0951 20.2994 10.1496C20.2993 4.55312 15.7462 0 10.1497 0ZM10.1497 25.7115C7.0928 22.0804 1.82777 14.9164 1.82777 10.1497C1.82777 5.56093 5.56093 1.82777 10.1497 1.82777C14.7384 1.82777 18.4716 5.56094 18.4716 10.1497C18.4715 14.9166 13.2073 22.0792 10.1497 25.7115Z" fill="#0F384C"/>
<path d="M10.1497 5.04285C7.33392 5.04285 5.04318 7.33364 5.04318 10.1494C5.04318 12.9652 7.33397 15.256 10.1497 15.256C12.9654 15.256 15.2561 12.9652 15.2561 10.1494C15.2561 7.33364 12.9654 5.04285 10.1497 5.04285ZM10.1497 13.4282C8.34173 13.4282 6.87095 11.9574 6.87095 10.1494C6.87095 8.34145 8.34179 6.87062 10.1497 6.87062C11.9576 6.87062 13.4284 8.34145 13.4284 10.1494C13.4284 11.9574 11.9576 13.4282 10.1497 13.4282Z" fill="#0F384C"/>
</svg>
