<svg width="120" height="125" viewBox="0 0 120 125" fill="none" xmlns="http://www.w3.org/2000/svg">
<g opacity="0.3">
<path d="M118.428 66.2685L110.28 61.7401V58.0544C110.28 55.5759 108.27 53.5664 105.792 53.5664C103.732 53.5664 102.001 54.9554 101.473 56.8463L94.616 53.0357V49.6394C94.616 47.1609 92.6065 45.1514 90.128 45.1514C88.1586 45.1514 86.4905 46.421 85.8855 48.1845L79.8017 44.8036C79.351 36.0938 78.5336 28.1041 77.3945 21.4731C76.491 16.2129 75.4229 12.0436 74.2198 9.08094C73.6086 7.5769 71.75 3 67.9361 3C64.1218 3 62.2633 7.5769 61.6523 9.08094C60.4493 12.0436 59.3811 16.2129 58.4776 21.4731C57.3388 28.1041 56.5212 36.0938 56.0704 44.8036L49.9864 48.1845C49.3813 46.421 47.7127 45.1514 45.7441 45.1514C43.2653 45.1514 41.2561 47.1609 41.2561 49.6394V53.0357L34.3985 56.8463C33.8706 54.9551 32.1391 53.5664 30.0799 53.5664C27.6012 53.5664 25.5919 55.5759 25.5919 58.0544V61.7401L17.4426 66.2685C16.5523 66.7639 16 67.7019 16 68.7203V80.4222C16 81.3302 16.4398 82.1823 17.1803 82.7085C17.9209 83.2348 18.8701 83.3694 19.7281 83.0707L55.8048 70.4962C56.1383 81.7391 57.0586 92.1078 58.4774 100.368C58.7346 101.867 59.0058 103.273 59.2894 104.592L40.5047 115.031C40.0208 115.3 39.721 115.809 39.721 116.363V122.719C39.721 123.213 39.9599 123.676 40.3622 123.962C40.7644 124.248 41.28 124.321 41.7464 124.159L63.7036 116.506C64.7129 117.777 66.0963 118.842 67.9358 118.842C69.7753 118.842 71.1587 117.777 72.1677 116.506L94.1248 124.159C94.2887 124.215 94.4581 124.244 94.6264 124.244C94.9386 124.244 95.248 124.148 95.5088 123.962C95.9111 123.676 96.1498 123.214 96.1498 122.719V116.363C96.1498 115.809 95.8502 115.299 95.3663 115.031L76.5816 104.592C76.8649 103.274 77.1362 101.867 77.3936 100.368C78.8127 92.1083 79.7327 81.7391 80.066 70.4962L116.143 83.0707C116.443 83.1756 116.756 83.2272 117.066 83.2272C117.641 83.2272 118.21 83.0502 118.69 82.7085C119.431 82.1826 119.871 81.3302 119.871 80.4222V68.7203C119.871 67.7019 119.319 66.7633 118.428 66.2685Z" fill="#FFAF39"/>
</g>
<path d="M64.404 5.15197C63.4091 2.81473 61.4498 1.03948 58.9397 0.259061C55.2677 -0.699703 51.3983 1.06976 49.7161 4.45883C46.9688 9.9783 45.5335 16.1584 45.5676 22.3158V81.7246C45.5676 81.8442 45.5789 81.9638 45.6019 82.0836L50.713 108.566C51.144 111.667 53.8286 114 56.9539 114C56.9559 114 56.9596 114 56.9634 114C60.0924 114 62.7752 111.665 63.1892 108.665L68.3154 82.0838C68.3401 81.966 68.3515 81.8447 68.3515 81.7249V22.312C68.3381 16.3712 66.9596 10.4076 64.404 5.15197ZM64.5541 81.5405L59.4467 108.042C59.2759 109.274 58.207 110.203 56.9576 110.203C55.7103 110.203 54.6431 109.274 54.459 107.945L49.3668 81.5423V22.3064C49.3365 16.7302 50.6333 11.1424 53.1186 6.1488C54.0072 4.36019 56.0577 3.42793 57.8955 3.90842C59.253 4.33192 60.3543 5.32675 60.9486 6.72215C63.2954 11.5543 64.5407 16.9464 64.5541 22.3158V81.5405Z" fill="#FFAF39"/>
<path d="M48.4383 42.1188C47.863 41.7752 47.1471 41.7618 46.5624 42.0807L0.994835 66.7634C0.381635 67.0956 0 67.7355 0 68.4322V79.8241C0 80.4469 0.303705 81.0278 0.816486 81.3847C1.13934 81.6069 1.51719 81.7227 1.89883 81.7227C2.12282 81.7227 2.34882 81.6846 2.56524 81.6031L48.1328 64.5152C48.8734 64.2363 49.365 63.528 49.365 62.7362V43.7497C49.3648 43.0815 49.0136 42.4625 48.4383 42.1188ZM45.5676 61.4205L3.79721 77.0845V69.564L45.5676 46.9398V61.4205Z" fill="#FFAF39"/>
<path d="M112.924 66.7634L67.3564 42.0809C66.7679 41.7638 66.0559 41.7752 65.4805 42.1189C64.9072 42.4607 64.554 43.0797 64.554 43.7499V62.7364C64.554 63.5282 65.0439 64.2382 65.7845 64.5154L111.352 81.6033C111.57 81.683 111.796 81.7229 112.02 81.7229C112.402 81.7229 112.78 81.6089 113.099 81.3849C113.611 81.0297 113.917 80.447 113.917 79.8243V68.4324C113.917 67.7355 113.535 67.0956 112.924 66.7634ZM110.122 77.0844L68.3513 61.4205V46.9375L110.122 69.5637V77.0844Z" fill="#FFAF39"/>
<path d="M30.3783 43.7518C27.2379 43.7518 24.6823 46.3074 24.6823 49.4478V55.1438H28.4795V49.4478C28.4795 48.4015 29.332 47.5492 30.3781 47.5492C31.4241 47.5492 32.2767 48.4018 32.2767 49.4478V51.3464H36.0739V49.4478C36.0743 46.3072 33.5187 43.7518 30.3783 43.7518Z" fill="#FFAF39"/>
<path d="M13.2904 53.2429C10.1501 53.2429 7.59441 55.7986 7.59441 58.939V64.635H11.3916V58.939C11.3916 57.8929 12.2442 57.0421 13.2902 57.0421C14.3363 57.0421 15.1888 57.8927 15.1888 58.939H18.986C18.9865 55.7986 16.4308 53.2429 13.2904 53.2429Z" fill="#FFAF39"/>
<path d="M83.5405 43.7518C80.4002 43.7518 77.8445 46.3074 77.8445 49.4478V51.3464H81.6417V49.4478C81.6417 48.4015 82.4923 47.5492 83.5403 47.5492C84.5884 47.5492 85.4389 48.4018 85.4389 49.4478V55.1438H89.2361V49.4478C89.2366 46.3072 86.6809 43.7518 83.5405 43.7518Z" fill="#FFAF39"/>
<path d="M100.628 53.2429C97.488 53.2429 94.9324 55.7986 94.9324 58.939H98.7296C98.7296 57.8929 99.5801 57.0421 100.628 57.0421C101.676 57.0421 102.527 57.8927 102.527 58.939V64.635H106.324V58.939C106.324 55.7986 103.769 53.2429 100.628 53.2429Z" fill="#FFAF39"/>
<path d="M52.8469 106.432L32.2751 109.861V105.583L50.3409 94.7436L48.3871 91.4875L29.4006 102.879C28.8291 103.221 28.4797 103.838 28.4797 104.507V112.101C28.4797 112.659 28.7266 113.191 29.1519 113.55C29.4975 113.842 29.9323 114 30.3785 114C30.481 114 30.5854 113.99 30.688 113.975L53.4719 110.178L52.8469 106.432Z" fill="#FFAF39"/>
<path d="M84.5164 102.879L65.53 91.4875L63.5764 94.7436L81.6421 105.583V109.859L61.0683 106.43L60.4456 110.176L83.2295 113.973C83.3339 113.99 83.4363 114 83.5408 114C83.987 114 84.4218 113.842 84.7654 113.55C85.1926 113.189 85.4376 112.659 85.4376 112.101V104.506C85.4374 103.84 85.088 103.223 84.5164 102.879Z" fill="#FFAF39"/>
<path d="M61.2636 14.573C60.6429 12.7143 58.8714 11.52 56.9385 11.4725C54.9241 11.4915 53.1925 12.8036 52.6532 14.6585L51.362 18.4557L54.9582 19.6786L56.2739 15.8014C56.3669 15.4864 56.6479 15.2717 56.9612 15.2697C57.2803 15.2697 57.5613 15.4728 57.6619 15.7709L58.9531 19.6632L62.5568 18.4689L61.2636 14.573Z" fill="#FFAF39"/>
</svg>
