<svg width="126" height="117" viewBox="0 0 126 117" fill="none" xmlns="http://www.w3.org/2000/svg">
<g opacity="0.3">
<path d="M84.7925 21.3909H49.2188V30.4542H84.7925V21.3909Z" fill="#FFAF39"/>
<path d="M94.1957 30.4542H39.8155V39.5175H94.1957V30.4542Z" fill="#FFAF39"/>
<path d="M71.5373 3.26422H62.474V21.3909H71.5373V3.26422Z" fill="#FFAF39"/>
<path d="M33.018 39.5186V60.1121L67.0056 39.5186H33.018Z" fill="#FFAF39"/>
<path d="M100.993 39.5186H67.0057L100.993 60.1121V39.5186Z" fill="#FFAF39"/>
<path d="M21.009 67.3884L34.2318 111.877C38.2491 113.432 42.769 113.19 46.6212 111.162L50.3902 109.179C54.5727 106.977 59.5485 106.878 63.816 108.91L67.0056 110.428V66.7086V39.5186L21.009 67.3884Z" fill="#FFAF39"/>
<path d="M67.0057 39.5186V66.7086V110.428L69.4641 111.599C73.6323 113.584 78.4828 113.537 82.6121 111.473L87.4922 109.033C91.6326 106.963 96.4906 106.929 100.658 108.921L113.002 67.3884L67.0057 39.5186Z" fill="#FFAF39"/>
<path d="M83.016 62.7208C83.016 62.7208 97.6624 71.7584 97.6715 71.7638C98.7244 72.4134 100.142 72.0792 100.789 71.0254C101.437 69.9713 101.107 68.5572 100.053 67.9076C100.053 67.9076 85.4158 58.8759 85.3974 58.8646C84.344 58.2145 82.9254 58.5574 82.2774 59.6031C81.628 60.651 81.9726 62.0776 83.016 62.7208Z" fill="#FFAF39"/>
<path d="M75.3131 57.9466C75.6619 58.1675 76.0683 58.3001 76.4905 58.3001C77.2833 58.3001 78.0061 57.8992 78.4207 57.2242C79.304 55.7863 78.1937 53.7686 76.4955 53.7684C75.0483 53.7681 73.957 55.1458 74.2878 56.5542C74.4195 57.1152 74.8051 57.6248 75.3131 57.9466Z" fill="#FFAF39"/>
<path d="M36.5531 72.1074C36.9796 72.1194 37.4035 72.0213 37.7581 71.7977C37.7581 71.7977 52.315 62.6163 52.3252 62.6097C53.3729 61.949 53.6911 60.5344 53.0326 59.4858C52.3934 58.4678 50.9197 58.1388 49.9076 58.7782C49.9076 58.7782 35.3649 67.9485 35.3405 67.9639C34.2925 68.6246 33.9728 70.0403 34.6329 71.0874C35.0296 71.717 35.7952 72.0861 36.5531 72.1074Z" fill="#FFAF39"/>
<path d="M58.7829 58.1256C59.8331 58.1256 60.7603 57.3862 60.9921 56.3602C61.3095 54.9554 60.2142 53.5939 58.7784 53.5939C57.7261 53.5939 56.8041 54.3334 56.5714 55.3585C56.2545 56.7549 57.36 58.1256 58.7829 58.1256Z" fill="#FFAF39"/>
<path d="M124.455 104.195C123.634 103.251 122.203 103.151 121.259 103.972C118.843 106.073 116.607 108.251 113.437 109.127C109.912 110.101 106.563 109.332 103.374 107.738L115.174 68.0346C115.468 67.047 115.058 65.9854 114.177 65.4514L103.259 58.8362V39.5193C103.259 38.2681 102.245 37.2534 100.993 37.2534H96.4615V30.4559C96.4615 29.2047 95.4471 28.1901 94.1957 28.1901H87.0583V21.3926C87.0583 20.1414 86.0439 19.1267 84.7925 19.1267H73.8031V3.26584C73.8031 2.01464 72.7887 1 71.5373 1H62.4739C61.2225 1 60.2081 2.01464 60.2081 3.26584V19.1267H49.2188C47.9674 19.1267 46.9529 20.1414 46.9529 21.3926V28.1901H39.8155C38.5641 28.1901 37.5497 29.2047 37.5497 30.4559V37.2534H33.018C31.7666 37.2534 30.7522 38.2681 30.7522 39.5193V58.8362L19.8349 65.4511C18.9535 65.9852 18.5436 67.0467 18.8373 68.0344C18.8373 68.0344 30.6085 107.639 30.6135 107.656C30.4125 106.98 26.7867 106.535 26.1457 106.452C19.5483 105.598 14.5315 108.903 9.77912 113.035C8.83471 113.856 8.73502 115.287 9.55593 116.232C10.3397 117.133 11.7982 117.284 12.7524 116.455C17.6484 112.199 23.1682 108.954 29.6462 112.194C35.5066 115.124 41.5727 116.38 47.6766 113.168C52.5985 110.577 57.3482 108.34 62.8419 110.956L68.49 113.646C73.3221 115.947 78.839 115.894 83.6256 113.5C86.5752 112.025 89.5732 110.063 92.9425 109.831C96.2451 109.604 99.4364 110.834 102.338 112.286C106.172 114.203 110.66 114.586 114.776 113.412C118.568 112.331 121.328 109.916 124.232 107.391C125.177 106.57 125.276 105.14 124.455 104.195ZM99.1855 105.922C99.2107 105.221 92.8323 105.227 92.405 105.272C88.472 105.688 85.0696 107.712 81.5988 109.447C77.4985 111.497 73.2795 110.908 69.2715 108.999V43.5416L110.332 68.4205C110.332 68.4205 99.1858 105.922 99.1855 105.922ZM98.7274 56.0905L75.1178 41.7851H98.7274V56.0905ZM64.7398 5.53168H69.2715V19.1267H64.7398V5.53168ZM51.4846 23.6584H82.5266V28.1901H51.4846V23.6584ZM42.0814 32.7218H91.9299V37.2534H42.0814V32.7218ZM35.2839 41.7851H58.8935L35.2839 56.0905V41.7851ZM64.7398 43.5416C64.7398 43.5416 64.7398 106.838 64.7398 106.841C64.7402 106.438 61.5098 105.695 61.0872 105.604C57.1438 104.75 52.9103 105.292 49.3352 107.174C46.7413 108.539 44.2387 110.132 41.272 110.514C41.2666 110.515 41.2611 110.515 41.2557 110.516C39.5223 110.727 37.7482 110.599 36.0706 110.11L23.6794 68.4205L64.7398 43.5416Z" fill="#FFAF39"/>
</g>
<path d="M88.66 65.1498C88.66 65.1498 74.4076 56.3556 74.3897 56.3445C73.364 55.7115 71.9826 56.0454 71.3516 57.0636C70.7193 58.084 71.0549 59.473 72.0709 60.0994C72.0709 60.0994 86.3324 68.8994 86.3412 68.9047C87.3665 69.5373 88.7467 69.2118 89.3771 68.1857C90.0074 67.1593 89.6862 65.7824 88.66 65.1498Z" fill="#FFAF39"/>
<path d="M65.7216 51.3824C64.3125 51.3822 63.2499 52.7236 63.572 54.095C63.7002 54.6413 64.0757 55.1375 64.5704 55.4508C64.9099 55.6659 65.3057 55.795 65.7168 55.795C66.4888 55.795 67.1926 55.4047 67.5963 54.7474C68.4563 53.3473 67.3752 51.3826 65.7216 51.3824Z" fill="#FFAF39"/>
<path d="M42.8755 56.9495C42.2531 55.9582 40.8181 55.6379 39.8325 56.2605C39.8325 56.2605 25.6721 65.1898 25.6483 65.2048C24.6279 65.8481 24.3166 67.2266 24.9592 68.2462C25.3456 68.8593 26.0911 69.2187 26.8291 69.2394C27.2443 69.2511 27.6571 69.1556 28.0024 68.9378C28.0024 68.9378 42.1767 59.9977 42.1866 59.9913C43.2068 59.348 43.5166 57.9706 42.8755 56.9495Z" fill="#FFAF39"/>
<path d="M48.4702 51.2125C47.4456 51.2125 46.5478 51.9326 46.3212 52.9307C46.0126 54.2905 47.089 55.625 48.4746 55.625C49.4972 55.625 50.4 54.9051 50.6257 53.9061C50.9348 52.5382 49.8683 51.2125 48.4702 51.2125Z" fill="#FFAF39"/>
<path d="M112.421 100.483C111.622 99.5636 110.228 99.4665 109.308 100.266C106.956 102.312 104.779 104.432 101.692 105.285C98.2605 106.234 94.9994 105.485 91.8938 103.933L103.384 65.273C103.67 64.3112 103.271 63.2776 102.412 62.7576L91.7819 56.3163V37.507C91.7819 36.2887 90.7942 35.3007 89.5756 35.3007H85.163V28.6818C85.163 27.4635 84.1753 26.4755 82.9567 26.4755H76.0069V19.8566C76.0069 18.6383 75.0192 17.6503 73.8006 17.6503H63.1001V2.20629C63.1001 0.987978 62.1124 0 60.8938 0H52.0686C50.8501 0 49.8623 0.987978 49.8623 2.20629V17.6503H39.1618C37.9433 17.6503 36.9555 18.6383 36.9555 19.8566V26.4755H30.0057C28.7872 26.4755 27.7994 27.4635 27.7994 28.6818V35.3007H23.3868C22.1683 35.3007 21.1805 36.2887 21.1805 37.507V56.3163L10.5502 62.7573C9.69192 63.2774 9.2928 64.311 9.57874 65.2727C9.57874 65.2727 21.0407 103.837 21.0455 103.853C20.8498 103.195 17.3193 102.761 16.6951 102.681C10.2711 101.849 5.38612 105.067 0.75864 109.091C-0.160943 109.891 -0.25802 111.284 0.54132 112.203C1.30448 113.081 2.72467 113.229 3.65374 112.421C8.4211 108.276 13.7958 105.117 20.1036 108.272C25.81 111.125 31.7167 112.348 37.6602 109.22C42.4527 106.698 47.0776 104.519 52.4269 107.066L57.9266 109.685C62.6317 111.926 68.0036 111.874 72.6644 109.544C75.5365 108.107 78.4557 106.196 81.7364 105.971C84.9523 105.75 88.0597 106.947 90.8853 108.361C94.6181 110.228 98.9881 110.601 102.997 109.458C106.689 108.406 109.376 106.054 112.204 103.595C113.123 102.796 113.22 101.403 112.421 100.483ZM87.3693 39.7133V53.6427L64.3802 39.7133H87.3693ZM54.2749 4.41259H58.6875V17.6503H54.2749V4.41259ZM41.3681 22.0629H71.5943V26.4755H41.3681V22.0629ZM25.5931 39.7133H48.5823L25.5931 53.6427V39.7133ZM54.2749 103.059C54.2754 102.667 51.1299 101.944 50.7184 101.855C46.8786 101.024 42.7563 101.551 39.2752 103.384C36.7495 104.713 34.3126 106.264 31.4239 106.636C31.4186 106.637 31.4133 106.637 31.408 106.638C29.7202 106.843 27.9927 106.719 26.3591 106.243L14.2936 65.6487L54.2749 41.4236C54.2749 41.4236 54.2749 103.057 54.2749 103.059ZM32.212 35.3007V30.8881H80.7505V35.3007H32.212ZM87.8154 102.164C87.8399 101.482 81.6292 101.488 81.2131 101.532C77.3834 101.937 74.0705 103.907 70.6909 105.597C66.6983 107.593 62.5902 107.02 58.6875 105.16V41.4236L98.6689 65.6487L87.8154 102.164Z" fill="#FFAF39"/>
</svg>
