<svg width="28" height="24" viewBox="0 0 28 24" fill="none" xmlns="http://www.w3.org/2000/svg">
<circle cx="16.5" cy="11.5" r="11.5" fill="#B0C6D4"/>
<path d="M12 0C5.37256 0 0 5.37256 0 12C0 18.6274 5.37256 24 12 24C18.6274 24 24 18.6274 24 12C23.9911 5.37627 18.6237 0.00889888 12 0ZM9.03371 1.21348C7.84571 2.33312 6.94483 3.72243 6.40719 5.26382C5.51413 5.04694 4.63955 4.76022 3.79146 4.40629C5.20699 2.874 7.02276 1.76811 9.03371 1.21348ZM3.24135 5.0427C4.17755 5.46634 5.14834 5.80915 6.14292 6.06742C5.57987 7.85724 5.28007 9.71939 5.25303 11.5955V11.5793H0.830562C0.913685 9.19854 1.75867 6.90728 3.24135 5.0427ZM3.24135 18.9142C1.75867 17.0496 0.913685 14.7583 0.830562 12.3775L5.25303 12.3883C5.27852 14.2698 5.57831 16.1376 6.14292 17.9326C5.14962 18.1769 4.17897 18.5053 3.24135 18.9142ZM3.79146 19.5829V19.5506C4.63955 19.1966 5.51413 18.9098 6.40719 18.693C6.93863 20.2499 7.83991 21.6546 9.03371 22.7865C7.02155 22.2289 5.20564 21.1191 3.79146 19.5829ZM11.5955 23.1533C9.78337 22.9213 8.19775 21.1631 7.18921 18.5528C8.64034 18.2607 10.1154 18.1036 11.5955 18.0836V23.1533ZM11.5955 17.2422C10.0243 17.2623 8.45858 17.432 6.91955 17.7492C6.37975 16.0179 6.0927 14.2178 6.06742 12.4045V12.3883H11.5955V17.2422ZM11.5955 11.5793H6.06742C6.08804 9.74973 6.3751 7.93288 6.91955 6.18607C8.45751 6.51411 10.0232 6.69472 11.5955 6.72539V11.5793ZM11.5955 5.9164C10.1156 5.89807 8.64054 5.74281 7.18921 5.45258C8.19775 2.83146 9.78337 1.07865 11.5955 0.846742V5.9164ZM20.7587 5.07506C22.2413 6.93964 23.0863 9.2309 23.1694 11.6117H18.747C18.7226 9.72654 18.4227 7.85508 17.8571 6.05663C18.8504 5.81231 19.821 5.48393 20.7587 5.07506ZM20.2031 4.41708C19.3551 4.77101 18.4805 5.05773 17.5874 5.27461C17.0529 3.72984 16.1538 2.33676 14.9663 1.21348C16.9765 1.77202 18.7904 2.88169 20.2031 4.41708ZM12.4045 0.846742C14.2166 1.07865 15.8022 2.83685 16.8108 5.44719C15.3597 5.73924 13.8846 5.89631 12.4045 5.9164V0.846742ZM12.4045 6.72539C13.9757 6.70544 15.5415 6.53569 17.0805 6.21843C17.6249 7.96524 17.912 9.78209 17.9326 11.6117H12.4045V6.72539ZM12.4045 12.4207H17.9326C17.912 14.2503 17.6249 16.0671 17.0805 17.8139C15.5425 17.4858 13.9768 17.3053 12.4045 17.2746V12.4207ZM12.4045 23.1533V18.0836C13.8844 18.1019 15.3595 18.2571 16.8108 18.5474C15.8022 21.1685 14.2166 22.9213 12.4045 23.1533ZM14.9663 22.7865C16.155 21.6653 17.056 20.2741 17.5928 18.7308C18.4859 18.9476 19.3604 19.2343 20.2085 19.5883C18.7937 21.1226 16.9778 22.2304 14.9663 22.7865ZM20.7587 18.9573C19.8225 18.5337 18.8517 18.1908 17.8571 17.9326C18.4201 16.1428 18.7199 14.2806 18.747 12.4045V12.4207H23.1694C23.0863 14.8015 22.2413 17.0927 20.7587 18.9573Z" fill="#0F384C"/>
</svg>
